<svg width="1440" height="1491" viewBox="0 0 1440 1491" fill="none" xmlns="http://www.w3.org/2000/svg">
<g opacity="0.76">
<path d="M23.2761 0.074585C22.9711 5.06286 21.8277 9.96408 19.8938 14.5723L11.7732 33.9423C7.35728 29.5179 3.91396 24.2201 1.66377 18.3881C-0.586411 12.5561 -1.59385 6.31844 -1.29403 0.074585H23.2761Z" fill="white"/>
<path d="M45.1942 0.074585L43.2422 4.7234C41.7841 3.27064 40.4298 1.7172 39.1895 0.074585H45.1942Z" fill="white"/>
<path d="M1183.38 1388.67C1186.38 1381.51 1187.18 1373.62 1185.68 1366.01C1184.19 1358.4 1180.46 1351.4 1174.97 1345.92L1167.89 1362.8C1164.89 1369.95 1164.09 1377.84 1165.59 1385.45C1167.08 1393.07 1170.81 1400.06 1176.3 1405.55L1183.38 1388.67Z" fill="white"/>
<path d="M1193.91 1399.2C1201.06 1396.2 1208.95 1395.4 1216.56 1396.89C1224.18 1398.39 1231.17 1402.12 1236.66 1407.6L1219.78 1414.68C1212.62 1417.68 1204.74 1418.48 1197.12 1416.99C1189.51 1415.49 1182.51 1411.76 1177.03 1406.28L1193.91 1399.2Z" fill="white"/>
<path d="M1157.23 1414.46C1160.34 1407.04 1161.17 1398.86 1159.62 1390.97C1158.07 1383.08 1154.2 1375.83 1148.51 1370.14L1141.21 1387.65C1138.1 1395.07 1137.26 1403.24 1138.82 1411.14C1140.37 1419.03 1144.24 1426.28 1149.92 1431.96L1157.23 1414.46Z" fill="white"/>
<path d="M1168.12 1425.36C1175.53 1422.25 1183.71 1421.42 1191.6 1422.97C1199.49 1424.52 1206.74 1428.38 1212.43 1434.07L1194.92 1441.4C1187.51 1444.51 1179.33 1445.34 1171.44 1443.79C1163.55 1442.24 1156.3 1438.37 1150.61 1432.68L1168.12 1425.36Z" fill="white"/>
<path d="M1128.56 1442.77C1131.78 1435.09 1132.64 1426.62 1131.04 1418.45C1129.43 1410.28 1125.43 1402.77 1119.54 1396.88L1111.93 1414.99C1108.71 1422.68 1107.85 1431.14 1109.46 1439.31C1111.07 1447.49 1115.07 1455 1120.96 1460.89L1128.56 1442.77Z" fill="white"/>
<path d="M1139.82 1454.02C1147.5 1450.8 1155.97 1449.94 1164.14 1451.54C1172.32 1453.15 1179.82 1457.16 1185.71 1463.05L1167.58 1470.64C1159.9 1473.86 1151.43 1474.73 1143.26 1473.12C1135.09 1471.51 1127.58 1467.51 1121.69 1461.62L1139.82 1454.02Z" fill="white"/>
<path d="M1098 1472.92L1090.8 1490.07H1088.61C1083.09 1483.96 1079.42 1476.4 1078.04 1468.28C1076.66 1460.16 1077.61 1451.81 1080.8 1444.21L1088.67 1425.47C1094.76 1431.56 1098.9 1439.33 1100.56 1447.78C1102.22 1456.23 1101.33 1464.98 1098 1472.92Z" fill="white"/>
<path d="M1152.76 1490.07H1096.51L1109.69 1484.55C1116.72 1481.6 1124.41 1480.56 1131.97 1481.53C1139.53 1482.5 1146.7 1485.45 1152.76 1490.07Z" fill="white"/>
<path d="M1069.03 1490.07H1044.46C1044.74 1484.99 1045.89 1480 1047.86 1475.31L1055.98 1455.94C1060.44 1460.39 1063.9 1465.73 1066.15 1471.61C1068.4 1477.49 1069.38 1483.79 1069.03 1490.07Z" fill="white"/>
<path d="M1028.77 1490.07H1022.46L1024.51 1485.17C1026.04 1486.71 1027.47 1488.34 1028.77 1490.07Z" fill="white"/>
<path d="M1212.89 1370.98L1201.57 1382.3L1177.91 1405.96L1177.3 1406.59L1151.49 1432.38L1150.88 1433.01L1122.57 1461.32L1121.96 1461.94L1093.74 1490.15H1091.26L1120.71 1460.69L1121.33 1460.08L1149.64 1431.77L1150.27 1431.16L1176.04 1405.25L1176.67 1404.64L1211.66 1369.65C1211.82 1369.52 1212.04 1369.45 1212.25 1369.46C1212.47 1369.47 1212.68 1369.56 1212.83 1369.71C1212.99 1369.87 1213.08 1370.07 1213.09 1370.29C1213.1 1370.51 1213.03 1370.72 1212.89 1370.89V1370.98Z" fill="white"/>
<path d="M1230.44 1369.31C1218.52 1381.23 1200.2 1382.38 1200.2 1382.38C1200.2 1382.38 1201.3 1364.1 1213.26 1352.13C1225.23 1340.17 1243.51 1339.06 1243.51 1339.06C1243.51 1339.06 1242.41 1357.35 1230.44 1369.31Z" fill="white"/>
<path d="M438.375 1388.67C441.376 1381.51 442.179 1373.62 440.682 1366.01C439.186 1358.4 435.457 1351.4 429.972 1345.92L422.894 1362.8C419.894 1369.95 419.09 1377.84 420.587 1385.45C422.084 1393.07 425.812 1400.06 431.298 1405.55L438.375 1388.67Z" fill="white"/>
<path d="M448.909 1399.2C456.064 1396.2 463.95 1395.4 471.563 1396.89C479.175 1398.39 486.171 1402.12 491.657 1407.6L474.775 1414.68C467.613 1417.69 459.715 1418.5 452.09 1417.01C444.465 1415.51 437.459 1411.77 431.968 1406.28L448.909 1399.2Z" fill="white"/>
<path d="M412.226 1414.46C415.337 1407.04 416.17 1398.86 414.618 1390.97C413.065 1383.08 409.198 1375.83 403.509 1370.14L396.208 1387.65C393.097 1395.07 392.264 1403.24 393.816 1411.14C395.369 1419.03 399.236 1426.28 404.925 1431.96L412.226 1414.46Z" fill="white"/>
<path d="M423.117 1425.36C430.533 1422.25 438.707 1421.42 446.598 1422.97C454.489 1424.52 461.74 1428.38 467.43 1434.07L449.922 1441.4C442.506 1444.51 434.33 1445.34 426.438 1443.79C418.546 1442.24 411.296 1438.37 405.61 1432.68L423.117 1425.36Z" fill="white"/>
<path d="M383.558 1442.77C386.789 1435.09 387.665 1426.63 386.073 1418.46C384.481 1410.29 380.493 1402.77 374.618 1396.88L367.004 1414.99C363.786 1422.68 362.926 1431.14 364.534 1439.31C366.142 1447.49 370.145 1455 376.034 1460.89L383.558 1442.77Z" fill="white"/>
<path d="M394.823 1454.02C402.505 1450.8 410.971 1449.94 419.144 1451.54C427.316 1453.15 434.825 1457.16 440.715 1463.05L422.581 1470.64C414.9 1473.86 406.433 1474.73 398.261 1473.12C390.088 1471.51 382.579 1467.51 376.689 1461.62L394.823 1454.02Z" fill="white"/>
<path d="M352.998 1472.92L345.802 1490.07H343.611C338.089 1483.96 334.421 1476.4 333.039 1468.28C331.656 1460.16 332.615 1451.81 335.804 1444.21L343.671 1425.47C349.76 1431.56 353.899 1439.33 355.56 1447.78C357.221 1456.23 356.329 1464.98 352.998 1472.92Z" fill="white"/>
<path d="M407.755 1490.07H351.508L364.694 1484.55C371.724 1481.6 379.407 1480.56 386.967 1481.53C394.526 1482.5 401.697 1485.45 407.755 1490.07Z" fill="white"/>
<path d="M324.032 1490.07H299.462C299.743 1484.99 300.892 1480 302.86 1475.31L310.98 1455.94C315.438 1460.39 318.905 1465.73 321.154 1471.61C323.404 1477.49 324.385 1483.79 324.032 1490.07Z" fill="white"/>
<path d="M283.773 1490.07H277.455L279.511 1485.17C281.043 1486.71 282.467 1488.34 283.773 1490.07Z" fill="white"/>
<path d="M467.892 1370.98L456.568 1382.3L432.907 1405.96L432.296 1406.59L406.489 1432.38L405.878 1433.01L377.568 1461.32L376.957 1461.94L348.737 1490.15H346.263L375.706 1460.69L376.331 1460.08L404.641 1431.77L405.267 1431.16L431.044 1405.25L431.67 1404.64L466.655 1369.65C466.824 1369.52 467.038 1369.45 467.255 1369.46C467.472 1369.47 467.678 1369.56 467.832 1369.71C467.985 1369.87 468.077 1370.07 468.088 1370.29C468.099 1370.51 468.029 1370.72 467.892 1370.89V1370.98Z" fill="white"/>
<path d="M485.444 1369.31C473.524 1381.23 455.197 1382.38 455.197 1382.38C455.197 1382.38 456.3 1364.1 468.265 1352.13C480.229 1340.17 498.512 1339.06 498.512 1339.06C498.512 1339.06 497.409 1357.35 485.444 1369.31Z" fill="white"/>
<path d="M1438.12 1132.47C1441.57 1124.26 1442.5 1115.21 1440.78 1106.47C1439.07 1097.73 1434.78 1089.7 1428.48 1083.41L1420.36 1102.78C1416.92 1110.99 1416 1120.03 1417.71 1128.76C1419.43 1137.5 1423.71 1145.52 1430 1151.81L1438.12 1132.47Z" fill="white"/>
<path d="M1465 1141.04V1165.61C1458.75 1165.98 1452.5 1165.03 1446.64 1162.83C1440.78 1160.63 1435.46 1157.22 1431 1152.83L1430.73 1152.57L1431.62 1152.2L1450.1 1144.45C1454.83 1142.47 1459.87 1141.31 1465 1141.04Z" fill="white"/>
<path d="M1406.96 1163.27C1410.54 1154.8 1411.5 1145.45 1409.73 1136.42C1407.95 1127.4 1403.53 1119.11 1397.01 1112.61L1388.64 1132.61C1385.06 1141.08 1384.1 1150.43 1385.88 1159.46C1387.65 1168.48 1392.08 1176.78 1398.59 1183.27L1406.96 1163.27Z" fill="white"/>
<path d="M1465 1181.3V1187.62L1449.92 1193.94C1441.45 1197.5 1432.1 1198.46 1423.08 1196.69C1414.05 1194.92 1405.76 1190.5 1399.26 1184L1419.26 1175.61C1426.71 1172.47 1434.86 1171.34 1442.89 1172.34C1450.92 1173.34 1458.54 1176.43 1465 1181.3Z" fill="white"/>
<path d="M1373.31 1196.65C1376.97 1187.92 1377.95 1178.3 1376.12 1169.01C1374.29 1159.73 1369.75 1151.19 1363.05 1144.5L1354.41 1165.11C1350.75 1173.83 1349.77 1183.45 1351.6 1192.74C1353.42 1202.03 1357.97 1210.56 1364.66 1217.26L1373.31 1196.65Z" fill="white"/>
<path d="M1386 1209.27C1394.73 1205.61 1404.35 1204.63 1413.64 1206.46C1422.93 1208.29 1431.46 1212.84 1438.15 1219.54L1417.54 1228.18C1408.81 1231.84 1399.19 1232.81 1389.91 1230.98C1380.62 1229.16 1372.09 1224.61 1365.39 1217.91L1386 1209.27Z" fill="white"/>
<path d="M1340.27 1229.25C1344.04 1220.25 1345.05 1210.34 1343.17 1200.77C1341.29 1191.2 1336.6 1182.41 1329.71 1175.51L1320.77 1196.72C1317 1205.72 1315.99 1215.63 1317.87 1225.2C1319.76 1234.77 1324.44 1243.57 1331.33 1250.47L1340.27 1229.25Z" fill="white"/>
<path d="M1353.34 1242.3C1362.34 1238.53 1372.25 1237.53 1381.82 1239.41C1391.39 1241.29 1400.18 1245.97 1407.08 1252.87L1385.85 1261.81C1376.85 1265.57 1366.94 1266.58 1357.37 1264.69C1347.8 1262.81 1339.01 1258.12 1332.11 1251.23L1353.34 1242.3Z" fill="white"/>
<path d="M1463.05 1118.3L1465.01 1116.34V1118.81L1464.3 1119.54L1463.69 1120.17L1431.65 1152.2L1431.04 1152.83L1400.24 1183.63L1399.62 1184.25L1366.29 1217.51L1365.66 1218.13L1333 1250.8L1315.54 1268.33C1315.37 1268.5 1315.15 1268.59 1314.91 1268.59C1314.68 1268.59 1314.45 1268.5 1314.29 1268.33C1314.12 1268.17 1314.03 1267.94 1314.03 1267.71C1314.03 1267.47 1314.12 1267.25 1314.29 1267.08L1331.17 1250.2L1331.79 1249.57L1398.99 1182.37L1429.79 1151.58L1430.42 1150.95L1462.45 1118.92L1463.05 1118.3Z" fill="white"/>
<path d="M810.875 1016.17C813.876 1009.01 814.679 1001.12 813.182 993.512C811.686 985.899 807.957 978.904 802.472 973.417L795.394 990.299C792.394 997.454 791.59 1005.34 793.087 1012.95C794.584 1020.57 798.312 1027.56 803.798 1033.05L810.875 1016.17Z" fill="white"/>
<path d="M821.409 1026.7C828.564 1023.7 836.45 1022.9 844.063 1024.39C851.676 1025.89 858.671 1029.62 864.157 1035.1L847.276 1042.18C840.113 1045.19 832.215 1046 824.59 1044.51C816.965 1043.01 809.96 1039.27 804.468 1033.78L821.409 1026.7Z" fill="white"/>
<path d="M784.725 1041.96C787.837 1034.54 788.67 1026.36 787.117 1018.47C785.565 1010.58 781.698 1003.33 776.009 997.645L768.708 1015.15C765.596 1022.57 764.764 1030.74 766.316 1038.64C767.868 1046.53 771.735 1053.78 777.424 1059.46L784.725 1041.96Z" fill="white"/>
<path d="M795.617 1052.86C803.033 1049.75 811.207 1048.92 819.098 1050.47C826.989 1052.02 834.24 1055.88 839.93 1061.57L822.422 1068.9C815.006 1072.01 806.83 1072.84 798.938 1071.29C791.046 1069.74 783.796 1065.87 778.11 1060.18L795.617 1052.86Z" fill="white"/>
<path d="M756.058 1070.27C759.289 1062.59 760.165 1054.13 758.573 1045.96C756.981 1037.79 752.993 1030.27 747.118 1024.38L739.504 1042.49C736.286 1050.18 735.426 1058.64 737.034 1066.81C738.642 1074.99 742.645 1082.5 748.534 1088.39L756.058 1070.27Z" fill="white"/>
<path d="M767.322 1081.52C775.004 1078.3 783.47 1077.44 791.643 1079.04C799.816 1080.65 807.325 1084.66 813.214 1090.55L795.081 1098.14C787.399 1101.37 778.933 1102.23 770.76 1100.62C762.587 1099.01 755.078 1095.01 749.189 1089.12L767.322 1081.52Z" fill="white"/>
<path d="M725.498 1100.44C728.828 1092.49 729.72 1083.74 728.059 1075.28C726.398 1066.83 722.26 1059.06 716.171 1052.97L708.304 1071.71C704.98 1079.66 704.095 1088.41 705.762 1096.86C707.428 1105.31 711.57 1113.08 717.661 1119.17L725.498 1100.44Z" fill="white"/>
<path d="M737.15 1112.05C745.092 1108.72 753.847 1107.82 762.298 1109.48C770.749 1111.15 778.515 1115.28 784.606 1121.37L765.862 1129.24C757.917 1132.57 749.16 1133.46 740.707 1131.8C732.253 1130.14 724.485 1126 718.391 1119.91L737.15 1112.05Z" fill="white"/>
<path d="M693.12 1132.47C696.574 1124.26 697.502 1115.21 695.785 1106.47C694.068 1097.73 689.784 1089.7 683.48 1083.41L675.36 1102.78C671.918 1110.99 670.997 1120.03 672.714 1128.76C674.431 1137.5 678.708 1145.52 685 1151.81L693.12 1132.47Z" fill="white"/>
<path d="M705.1 1144.5C713.308 1141.06 722.353 1140.14 731.085 1141.86C739.817 1143.57 747.841 1147.85 754.136 1154.14L734.766 1162.26C726.559 1165.71 717.512 1166.63 708.779 1164.91C700.046 1163.19 692.022 1158.92 685.73 1152.62L705.1 1144.5Z" fill="white"/>
<path d="M661.964 1163.27C665.538 1154.8 666.5 1145.45 664.727 1136.42C662.953 1127.4 658.526 1119.11 652.011 1112.61L643.637 1132.61C640.064 1141.08 639.102 1150.43 640.875 1159.46C642.649 1168.48 647.076 1176.78 653.591 1183.27L661.964 1163.27Z" fill="white"/>
<path d="M674.302 1175.61C682.777 1172.04 692.127 1171.07 701.152 1172.85C710.178 1174.62 718.468 1179.05 724.962 1185.56L704.981 1193.95C696.502 1197.51 687.157 1198.46 678.135 1196.69C669.113 1194.92 660.823 1190.5 654.321 1184L674.302 1175.61Z" fill="white"/>
<path d="M628.305 1196.65C631.966 1187.92 632.946 1178.3 631.12 1169.01C629.294 1159.73 624.746 1151.19 618.054 1144.5L609.412 1165.11C605.752 1173.83 604.772 1183.45 606.598 1192.74C608.423 1202.03 612.972 1210.56 619.663 1217.26L628.305 1196.65Z" fill="white"/>
<path d="M641 1209.27C649.73 1205.61 659.351 1204.63 668.638 1206.46C677.926 1208.29 686.458 1212.84 693.15 1219.54L672.544 1228.18C663.814 1231.84 654.193 1232.81 644.905 1230.98C635.618 1229.16 627.085 1224.61 620.394 1217.91L641 1209.27Z" fill="white"/>
<path d="M595.272 1229.25C599.04 1220.25 600.047 1210.34 598.166 1200.77C596.285 1191.2 591.601 1182.41 584.708 1175.51L575.768 1196.72C572 1205.72 570.993 1215.63 572.874 1225.2C574.755 1234.77 579.439 1243.57 586.332 1250.47L595.272 1229.25Z" fill="white"/>
<path d="M608.339 1242.3C617.335 1238.53 627.249 1237.53 636.819 1239.41C646.389 1241.29 655.183 1245.97 662.084 1252.87L640.851 1261.81C631.854 1265.57 621.94 1266.58 612.37 1264.69C602.799 1262.81 594.006 1258.12 587.107 1251.23L608.339 1242.3Z" fill="white"/>
<path d="M569.242 1268.33C569.078 1268.17 568.986 1267.94 568.986 1267.71C568.986 1267.47 569.078 1267.25 569.242 1267.08L839.155 997.183C839.237 997.101 839.335 997.037 839.442 996.994C839.549 996.95 839.663 996.928 839.779 996.929C839.894 996.929 840.009 996.953 840.115 996.998C840.221 997.043 840.318 997.108 840.399 997.19C840.48 997.272 840.545 997.37 840.588 997.477C840.632 997.584 840.654 997.698 840.653 997.814C840.652 997.929 840.629 998.044 840.584 998.15C840.539 998.256 840.474 998.353 840.392 998.434L570.538 1268.33C570.454 1268.42 570.354 1268.49 570.242 1268.54C570.131 1268.59 570.011 1268.61 569.89 1268.61C569.769 1268.61 569.649 1268.59 569.537 1268.54C569.426 1268.49 569.325 1268.42 569.242 1268.33Z" fill="white"/>
<path d="M857.944 996.81C846.024 1008.73 827.697 1009.88 827.697 1009.88C827.697 1009.88 828.8 991.595 840.765 979.63C852.729 967.666 871.012 966.563 871.012 966.563C871.012 966.563 869.909 984.845 857.944 996.81Z" fill="white"/>
<path d="M65.8752 1016.17C68.8758 1009.01 69.6789 1001.12 68.1823 993.512C66.6858 985.899 62.9573 978.904 57.4716 973.417L50.3941 990.299C47.3936 997.454 46.5905 1005.34 48.087 1012.95C49.5836 1020.57 53.3121 1027.56 58.7977 1033.05L65.8752 1016.17Z" fill="white"/>
<path d="M76.4091 1026.7C83.5639 1023.7 91.4499 1022.9 99.0627 1024.39C106.675 1025.89 113.671 1029.62 119.157 1035.1L102.275 1042.18C95.1131 1045.19 87.215 1046 79.59 1044.51C71.965 1043.01 64.9593 1039.27 59.4678 1033.78L76.4091 1026.7Z" fill="white"/>
<path d="M39.7257 1041.96C42.8374 1034.54 43.6701 1026.36 42.1177 1018.47C40.5653 1010.58 36.6982 1003.33 31.0092 997.645L23.7082 1015.15C20.5965 1022.57 19.7638 1030.74 21.3162 1038.64C22.8685 1046.53 26.7357 1053.78 32.4247 1059.46L39.7257 1041.96Z" fill="white"/>
<path d="M50.6179 1052.86C58.034 1049.75 66.2075 1048.92 74.0984 1050.47C81.9894 1052.02 89.2409 1055.88 94.9305 1061.57L77.423 1068.9C70.0061 1072.01 61.8307 1072.84 53.9388 1071.29C46.047 1069.74 38.796 1065.87 33.1104 1060.18L50.6179 1052.86Z" fill="white"/>
<path d="M11.0578 1070.27C14.2797 1062.59 15.143 1054.12 13.5376 1045.95C11.9323 1037.78 7.93101 1030.27 2.0433 1024.38L-5.57058 1042.49C-8.78862 1050.18 -9.6484 1058.64 -8.04048 1066.81C-6.43256 1074.99 -2.42966 1082.5 3.45882 1088.39L11.0578 1070.27Z" fill="white"/>
<path d="M22.3228 1081.52C30.0046 1078.3 38.4709 1077.44 46.6436 1079.04C54.8163 1080.65 62.3254 1084.66 68.2148 1090.55L50.0815 1098.14C42.3997 1101.37 33.9333 1102.23 25.7606 1100.62C17.5879 1099.01 10.0788 1095.01 4.18945 1089.12L22.3228 1081.52Z" fill="white"/>
<path d="M39.6064 1121.37L20.8622 1129.24C13.2655 1132.43 4.91774 1133.39 -3.2042 1132.01C-11.3261 1130.62 -18.8863 1126.96 -25 1121.43V1119.24L-7.85009 1112.05C0.0926418 1108.72 8.84705 1107.82 17.2983 1109.48C25.7496 1111.15 33.5152 1115.28 39.6064 1121.37Z" fill="white"/>
<path d="M9.13591 1154.09L-10.2341 1162.22C-14.9258 1164.18 -19.9201 1165.33 -25 1165.61V1141.04C-18.7117 1140.69 -12.4199 1141.67 -6.53715 1143.92C-0.654366 1146.17 4.68665 1149.64 9.13591 1154.09Z" fill="white"/>
<path d="M95.392 998.479L84.068 1009.8L60.4068 1033.46L59.7959 1034.09L33.9891 1059.88L33.3782 1060.51L5.06819 1088.82L4.45728 1089.44L-25 1118.89V1116.34L3.20569 1088.12L3.83151 1087.51L32.1415 1059.2L32.7673 1058.59L58.5443 1032.75L59.1701 1032.14L94.1553 997.153C94.2347 997.069 94.3305 997.001 94.4369 996.955C94.5432 996.909 94.6578 996.886 94.7737 996.886C94.8895 996.886 95.0041 996.909 95.1105 996.955C95.2168 997.001 95.3126 997.069 95.392 997.153C95.4914 997.232 95.5717 997.333 95.6268 997.448C95.6819 997.563 95.7106 997.689 95.7106 997.816C95.7106 997.943 95.6819 998.069 95.6268 998.184C95.5717 998.298 95.4914 998.399 95.392 998.479Z" fill="white"/>
<path d="M112.944 996.81C101.024 1008.73 82.6973 1009.88 82.6973 1009.88C82.6973 1009.88 83.7999 991.595 95.7646 979.63C107.729 967.666 126.012 966.563 126.012 966.563C126.012 966.563 124.909 984.845 112.944 996.81Z" fill="white"/>
<path d="M629.378 101.231C626.378 108.386 625.575 116.272 627.071 123.884C628.568 131.497 632.296 138.492 637.782 143.979L644.874 127.097C647.873 119.941 648.674 112.054 647.174 104.441C645.675 96.8284 641.944 89.834 636.456 84.3491L629.378 101.231Z" fill="white"/>
<path d="M618.844 90.6964C611.689 93.6969 603.803 94.5 596.19 93.0035C588.578 91.5069 581.583 87.7784 576.096 82.2928L592.978 75.2153C600.132 72.2148 608.018 71.4116 615.631 72.9082C623.244 74.4047 630.239 78.1333 635.726 83.6189L618.844 90.6964Z" fill="white"/>
<path d="M655.543 75.4388C652.431 82.8556 651.598 91.031 653.151 98.9229C654.703 106.815 658.57 114.066 664.259 119.751L671.59 102.244C674.707 94.8313 675.547 86.6585 674.003 78.7669C672.458 70.8752 668.6 63.622 662.918 57.9313L655.543 75.4388Z" fill="white"/>
<path d="M644.65 64.5321C637.234 67.6396 629.061 68.4715 621.171 66.9221C613.28 65.3726 606.028 61.5118 600.338 55.8305L617.845 48.4997C625.265 45.3888 633.442 44.5564 641.336 46.1087C649.23 47.661 656.484 51.5276 662.173 57.2162L644.65 64.5321Z" fill="white"/>
<path d="M684.195 47.1288C680.973 54.8102 680.111 63.2771 681.719 71.4502C683.328 79.6233 687.333 87.1325 693.225 93.0208L700.824 74.9024C704.046 67.2209 704.908 58.7541 703.3 50.581C701.692 42.4078 697.686 34.8986 691.794 29.0104L684.195 47.1288Z" fill="white"/>
<path d="M672.946 35.9388C665.264 39.1609 656.797 40.0228 648.624 38.4147C640.451 36.8066 632.942 32.8014 627.054 26.9094L645.172 19.3104C652.854 16.0884 661.32 15.2265 669.494 16.8346C677.667 18.4427 685.176 22.4479 691.064 28.3398L672.946 35.9388Z" fill="white"/>
<path d="M731.92 45.6686L724.008 64.4277C717.913 58.3369 713.77 50.5694 712.106 42.115C710.442 33.6606 711.333 24.9023 714.666 16.9563L721.758 0.074585H724.276C729.723 6.17843 733.332 13.6992 734.684 21.7675C736.037 29.8357 735.079 38.1221 731.92 45.6686Z" fill="white"/>
<path d="M660.34 0.074585H715.679L703.148 5.3492C696.172 8.28014 688.552 9.33536 681.042 8.41007C673.533 7.48478 666.396 4.61116 660.34 0.074585Z" fill="white"/>
<path d="M768.276 0.074585C767.971 5.06286 766.827 9.96408 764.894 14.5723L756.773 33.9423C752.357 29.5179 748.914 24.2201 746.664 18.3881C744.413 12.5561 743.406 6.31844 743.706 0.074585H768.276Z" fill="white"/>
<path d="M790.194 0.074585L788.242 4.7234C786.784 3.27064 785.43 1.7172 784.189 0.074585H790.194Z" fill="white"/>
<path d="M718.748 0.074585H721.252L692.048 29.2786L691.422 29.9044L663.112 58.2144L662.456 58.87L636.679 84.647L612.422 108.949L601.113 120.258C600.947 120.424 600.722 120.517 600.487 120.517C600.252 120.517 600.027 120.424 599.861 120.258C599.695 120.092 599.602 119.867 599.602 119.632C599.602 119.397 599.695 119.172 599.861 119.006L611.185 107.682L634.832 84.0361L635.457 83.4103L690.17 28.6975L690.796 28.0717L718.748 0.074585Z" fill="white"/>
<path d="M582.309 120.586C594.229 108.666 612.571 107.518 612.571 107.518C612.571 107.518 611.454 125.801 599.489 137.765C587.524 149.73 569.242 150.833 569.242 150.833C569.242 150.833 570.359 132.55 582.309 120.586Z" fill="white"/>
<path d="M256.878 473.731C253.877 480.886 253.074 488.771 254.571 496.384C256.067 503.997 259.796 510.992 265.282 516.479L272.374 499.597C275.373 492.441 276.173 484.554 274.674 476.941C273.175 469.328 269.444 462.334 263.956 456.849L256.878 473.731Z" fill="white"/>
<path d="M246.344 463.196C239.189 466.197 231.303 467 223.69 465.504C216.077 464.007 209.082 460.278 203.596 454.793L220.477 447.715C227.632 444.715 235.518 443.912 243.131 445.408C250.744 446.905 257.739 450.633 263.226 456.119L246.344 463.196Z" fill="white"/>
<path d="M283.043 447.939C279.931 455.356 279.098 463.531 280.651 471.423C282.203 479.315 286.07 486.566 291.759 492.251L299.09 474.744C302.207 467.331 303.047 459.159 301.503 451.267C299.958 443.375 296.1 436.122 290.418 430.431L283.043 447.939Z" fill="white"/>
<path d="M272.15 437.032C264.734 440.14 256.561 440.972 248.671 439.422C240.78 437.873 233.528 434.012 227.838 428.33L245.345 421C252.765 417.889 260.942 417.056 268.836 418.609C276.73 420.161 283.984 424.028 289.673 429.716L272.15 437.032Z" fill="white"/>
<path d="M311.696 419.629C308.474 427.31 307.612 435.777 309.22 443.95C310.828 452.123 314.833 459.633 320.725 465.521L328.324 447.402C331.546 439.721 332.408 431.254 330.8 423.081C329.192 414.908 325.187 407.399 319.295 401.51L311.696 419.629Z" fill="white"/>
<path d="M300.446 408.439C292.764 411.661 284.297 412.523 276.124 410.915C267.951 409.307 260.442 405.301 254.554 399.409L272.672 391.81C280.354 388.588 288.82 387.726 296.994 389.335C305.167 390.943 312.676 394.948 318.564 400.84L300.446 408.439Z" fill="white"/>
<path d="M342.225 389.456C338.89 397.397 337.991 406.151 339.644 414.604C341.297 423.058 345.427 430.828 351.508 436.928L359.36 418.184C362.695 410.239 363.588 401.481 361.927 393.027C360.266 384.573 356.125 376.805 350.033 370.712L342.225 389.456Z" fill="white"/>
<path d="M330.648 377.849C322.703 381.179 313.946 382.071 305.493 380.41C297.04 378.749 289.271 374.611 283.177 368.522L301.936 360.655C309.879 357.323 318.633 356.432 327.084 358.093C335.535 359.754 343.301 363.893 349.392 369.982L330.648 377.849Z" fill="white"/>
<path d="M374.633 357.421C371.197 365.628 370.28 374.672 371.999 383.401C373.719 392.131 377.997 400.151 384.288 406.442L392.409 387.072C395.855 378.87 396.781 369.828 395.069 361.098C393.358 352.368 389.086 344.345 382.798 338.051L374.633 357.421Z" fill="white"/>
<path d="M362.668 345.442C354.461 348.883 345.415 349.804 336.683 348.087C327.95 346.371 319.926 342.094 313.632 335.801L333.002 327.681C341.207 324.237 350.251 323.314 358.982 325.031C367.713 326.748 375.734 331.027 382.023 337.321L362.668 345.442Z" fill="white"/>
<path d="M405.789 326.623C402.229 335.101 401.275 344.447 403.048 353.469C404.82 362.492 409.24 370.782 415.742 377.283L424.131 357.287C427.69 348.809 428.645 339.463 426.872 330.441C425.099 321.418 420.68 313.128 414.178 306.627L405.789 326.623Z" fill="white"/>
<path d="M393.467 314.286C384.989 317.847 375.643 318.803 366.62 317.03C357.597 315.257 349.307 310.837 342.807 304.333L362.802 295.944C371.28 292.384 380.626 291.43 389.649 293.203C398.671 294.975 406.961 299.395 413.462 305.897L393.467 314.286Z" fill="white"/>
<path d="M439.418 293.321C435.76 302.051 434.783 311.672 436.611 320.96C438.439 330.247 442.99 338.78 449.684 345.471L458.326 324.865C461.985 316.135 462.962 306.514 461.134 297.227C459.306 287.939 454.755 279.407 448.06 272.715L439.418 293.321Z" fill="white"/>
<path d="M426.753 280.627C418.023 284.285 408.402 285.263 399.115 283.434C389.828 281.606 381.295 277.055 374.603 270.361L395.21 261.719C403.94 258.06 413.561 257.083 422.848 258.911C432.135 260.739 440.668 265.29 447.36 271.985L426.753 280.627Z" fill="white"/>
<path d="M472.481 260.646C468.713 269.642 467.706 279.555 469.587 289.125C471.468 298.695 476.153 307.49 483.045 314.39L491.985 293.173C495.753 284.177 496.761 274.263 494.88 264.693C492.998 255.123 488.314 246.329 481.421 239.428L472.481 260.646Z" fill="white"/>
<path d="M459.429 247.593C450.439 251.369 440.529 252.386 430.959 250.516C421.389 248.645 412.592 243.972 405.685 237.089L426.917 228.149C435.914 224.383 445.829 223.378 455.399 225.262C464.969 227.145 473.763 231.833 480.661 238.728L459.429 247.593Z" fill="white"/>
<path d="M498.511 221.563C498.675 221.73 498.767 221.955 498.767 222.189C498.767 222.423 498.675 222.648 498.511 222.815L228.613 492.713C228.446 492.877 228.221 492.969 227.987 492.969C227.753 492.969 227.528 492.877 227.361 492.713C227.197 492.546 227.105 492.322 227.105 492.088C227.105 491.854 227.197 491.629 227.361 491.462L497.26 221.563C497.427 221.399 497.651 221.308 497.885 221.308C498.119 221.308 498.344 221.399 498.511 221.563Z" fill="white"/>
<path d="M209.809 493.086C221.729 481.166 240.071 480.018 240.071 480.018C240.071 480.018 238.954 498.301 226.989 510.265C215.024 522.23 196.742 523.333 196.742 523.333C196.742 523.333 197.86 505.05 209.809 493.086Z" fill="white"/>
<path d="M2.13272 729.921C-1.30546 738.127 -2.22467 747.17 -0.50797 755.899C1.20873 764.628 5.48373 772.65 11.773 778.942L19.8935 759.572C23.3413 751.372 24.2699 742.331 22.561 733.6C20.8521 724.87 16.5832 716.847 10.2979 710.551L2.13272 729.921Z" fill="white"/>
<path d="M9.52332 709.821L8.62931 710.194L-9.83181 717.942C-14.6488 719.961 -19.7825 721.121 -25 721.369V696.799C-18.7104 696.391 -12.4055 697.317 -6.49932 699.518C-0.59313 701.719 4.78087 705.144 9.27 709.568L9.52332 709.821Z" fill="white"/>
<path d="M33.2888 699.123C29.7293 707.601 28.775 716.947 30.5477 725.969C32.3203 734.992 36.7395 743.282 43.242 749.783L51.6307 729.787C55.1902 721.309 56.1445 711.963 54.3719 702.941C52.5992 693.918 48.18 685.628 41.6775 679.127L33.2888 699.123Z" fill="white"/>
<path d="M40.9474 678.397L40.0534 678.77L20.9516 686.786C13.4441 689.919 5.24351 691.017 -2.82384 689.971C-10.8912 688.925 -18.5402 685.77 -25 680.826V674.866L-9.65302 668.429C-1.24111 664.907 8.02395 663.948 16.9787 665.674C25.9334 667.4 34.1787 671.733 40.6792 678.129L40.9474 678.397Z" fill="white"/>
<path d="M66.9183 665.822C63.2599 674.551 62.2825 684.173 64.1108 693.46C65.939 702.747 70.4901 711.28 77.1844 717.972L85.8264 697.365C89.4849 688.635 90.4623 679.014 88.634 669.727C86.8058 660.44 82.2547 651.907 75.5603 645.215L66.9183 665.822Z" fill="white"/>
<path d="M54.253 653.127C45.5232 656.785 35.902 657.763 26.6149 655.934C17.3277 654.106 8.79482 649.555 2.10303 642.861L22.7097 634.219C31.4395 630.56 41.0607 629.583 50.3479 631.411C59.6351 633.239 68.1679 637.79 74.8597 644.485L54.253 653.127Z" fill="white"/>
<path d="M99.9811 633.146C96.2132 642.142 95.2057 652.055 97.0868 661.625C98.9679 671.195 103.653 679.99 110.545 686.89L119.485 665.673C123.253 656.677 124.261 646.763 122.38 637.193C120.498 627.623 115.814 618.829 108.921 611.928L99.9811 633.146Z" fill="white"/>
<path d="M86.9289 620.093C77.9386 623.869 68.0288 624.886 58.459 623.015C48.8893 621.145 40.0917 616.471 33.1846 609.589L54.4171 600.649C63.4144 596.883 73.3286 595.878 82.8988 597.762C92.4689 599.645 101.263 604.333 108.161 611.228L86.9289 620.093Z" fill="white"/>
<path d="M126.011 595.315L109.144 612.181L108.489 612.837L75.8578 645.483L41.3196 680.021L10.5213 710.819L9.89555 711.445L-24.9854 746.326V743.823L-24.0169 742.854L-23.391 742.229L73.9804 644.857L74.6062 644.231L107.252 611.586L124.775 594.063C124.942 593.899 125.166 593.808 125.4 593.808C125.634 593.808 125.859 593.899 126.026 594.063C126.188 594.232 126.277 594.458 126.274 594.692C126.271 594.926 126.177 595.149 126.011 595.315Z" fill="white"/>
<path d="M1183.38 643.665C1186.38 636.51 1187.18 628.624 1185.68 621.012C1184.19 613.399 1180.46 606.404 1174.97 600.917L1167.89 617.799C1164.89 624.954 1164.09 632.84 1165.59 640.452C1167.08 648.065 1170.81 655.06 1176.3 660.547L1183.38 643.665Z" fill="white"/>
<path d="M1193.91 654.2C1201.06 651.199 1208.95 650.396 1216.56 651.892C1224.18 653.389 1231.17 657.118 1236.66 662.603L1219.78 669.681C1212.61 672.694 1204.72 673.504 1197.09 672.007C1189.47 670.51 1182.46 666.775 1176.97 661.277L1193.91 654.2Z" fill="white"/>
<path d="M1157.23 669.457C1160.34 662.04 1161.17 653.865 1159.62 645.973C1158.07 638.081 1154.2 630.83 1148.51 625.144L1141.21 642.652C1138.1 650.069 1137.26 658.244 1138.82 666.136C1140.37 674.028 1144.24 681.279 1149.92 686.965L1157.23 669.457Z" fill="white"/>
<path d="M1168.12 680.364C1175.53 677.254 1183.71 676.421 1191.6 677.971C1199.49 679.52 1206.74 683.382 1212.43 689.066L1194.92 696.396C1187.51 699.508 1179.33 700.341 1171.44 698.788C1163.55 697.236 1156.3 693.369 1150.61 687.68L1168.12 680.364Z" fill="white"/>
<path d="M1128.56 697.767C1131.78 690.087 1132.64 681.621 1131.04 673.449C1129.43 665.276 1125.43 657.766 1119.54 651.875L1111.93 669.993C1108.71 677.676 1107.85 686.141 1109.46 694.314C1111.07 702.486 1115.07 709.995 1120.96 715.886L1128.56 697.767Z" fill="white"/>
<path d="M1139.82 709.017C1147.5 705.796 1155.97 704.936 1164.14 706.544C1172.32 708.152 1179.82 712.156 1185.71 718.046L1167.58 725.645C1159.9 728.865 1151.43 729.726 1143.26 728.118C1135.09 726.51 1127.58 722.506 1121.69 716.616L1139.82 709.017Z" fill="white"/>
<path d="M1098 727.94C1101.33 719.994 1102.22 711.238 1100.56 702.784C1098.9 694.331 1094.76 686.563 1088.67 680.468L1080.8 699.212C1077.48 707.159 1076.6 715.914 1078.26 724.364C1079.93 732.815 1084.07 740.579 1090.16 746.669L1098 727.94Z" fill="white"/>
<path d="M1109.65 739.547C1117.59 736.216 1126.35 735.324 1134.8 736.985C1143.25 738.646 1151.02 742.785 1157.11 748.874L1138.36 756.741C1130.42 760.072 1121.66 760.963 1113.21 759.302C1104.75 757.641 1096.99 753.503 1090.89 747.414L1109.65 739.547Z" fill="white"/>
<path d="M1065.62 759.975C1069.07 751.765 1070 742.711 1068.28 733.971C1066.57 725.231 1062.28 717.202 1055.98 710.909L1047.86 730.279C1044.42 738.486 1043.5 747.532 1045.21 756.265C1046.93 764.997 1051.21 773.021 1057.5 779.315L1065.62 759.975Z" fill="white"/>
<path d="M1077.6 771.999C1085.81 768.559 1094.85 767.64 1103.59 769.356C1112.32 771.073 1120.34 775.349 1126.64 781.639L1107.27 789.76C1099.06 793.205 1090.01 794.128 1081.28 792.411C1072.55 790.694 1064.52 786.415 1058.23 780.119L1077.6 771.999Z" fill="white"/>
<path d="M1034.46 790.773C1038.04 782.297 1039 772.948 1037.23 763.922C1035.45 754.897 1031.03 746.606 1024.51 740.113L1016.14 760.109C1012.56 768.584 1011.6 777.934 1013.38 786.959C1015.15 795.985 1019.58 804.275 1026.09 810.769L1034.46 790.773Z" fill="white"/>
<path d="M1046.8 803.11C1055.28 799.537 1064.63 798.575 1073.65 800.348C1082.68 802.121 1090.97 806.549 1097.46 813.063L1077.48 821.452C1069 825.01 1059.66 825.963 1050.64 824.19C1041.61 822.418 1033.32 818 1026.82 811.499L1046.8 803.11Z" fill="white"/>
<path d="M1000.81 824.149C1004.47 815.421 1005.45 805.8 1003.62 796.513C1001.79 787.226 997.246 778.692 990.554 771.999L981.912 792.606C978.252 801.334 977.272 810.954 979.098 820.241C980.923 829.528 985.472 838.062 992.163 844.756L1000.81 824.149Z" fill="white"/>
<path d="M1013.5 836.769C1022.23 833.111 1031.85 832.133 1041.14 833.962C1050.43 835.79 1058.96 840.341 1065.65 847.035L1045.04 855.677C1036.31 859.336 1026.69 860.313 1017.41 858.485C1008.12 856.657 999.585 852.106 992.893 845.411L1013.5 836.769Z" fill="white"/>
<path d="M967.772 856.75C971.54 847.754 972.547 837.841 970.666 828.271C968.785 818.701 964.101 809.906 957.208 803.006L948.268 824.223C944.5 833.219 943.493 843.133 945.374 852.703C947.255 862.273 951.94 871.067 958.832 877.968L967.772 856.75Z" fill="white"/>
<path d="M980.839 869.802C989.835 866.034 999.749 865.027 1009.32 866.908C1018.89 868.789 1027.68 873.474 1034.58 880.366L1013.35 889.306C1004.35 893.073 994.44 894.078 984.87 892.194C975.299 890.31 966.506 885.623 959.607 878.728L980.839 869.802Z" fill="white"/>
<path d="M941.742 895.833C941.578 895.666 941.486 895.441 941.486 895.207C941.486 894.973 941.578 894.748 941.742 894.581L1211.66 624.683C1211.82 624.519 1212.05 624.427 1212.28 624.429C1212.51 624.43 1212.74 624.524 1212.9 624.69C1213.06 624.856 1213.15 625.08 1213.15 625.314C1213.15 625.547 1213.06 625.77 1212.89 625.934L943.038 895.833C942.954 895.921 942.854 895.991 942.742 896.039C942.631 896.086 942.511 896.111 942.39 896.111C942.269 896.111 942.149 896.086 942.037 896.039C941.926 895.991 941.825 895.921 941.742 895.833Z" fill="white"/>
<path d="M1230.44 624.31C1218.52 636.23 1200.2 637.377 1200.2 637.377C1200.2 637.377 1201.3 619.095 1213.26 607.13C1225.23 595.166 1243.51 594.063 1243.51 594.063C1243.51 594.063 1242.41 612.345 1230.44 624.31Z" fill="white"/>
<path d="M438.375 643.665C441.376 636.51 442.179 628.624 440.682 621.012C439.186 613.399 435.457 606.404 429.972 600.917L422.894 617.799C419.894 624.954 419.09 632.84 420.587 640.452C422.084 648.065 425.812 655.06 431.298 660.547L438.375 643.665Z" fill="white"/>
<path d="M448.909 654.2C456.064 651.199 463.95 650.396 471.563 651.892C479.175 653.389 486.171 657.118 491.657 662.603L474.775 669.681C467.613 672.694 459.715 673.504 452.09 672.007C444.465 670.51 437.459 666.775 431.968 661.277L448.909 654.2Z" fill="white"/>
<path d="M412.226 669.457C415.337 662.04 416.17 653.865 414.618 645.973C413.065 638.081 409.198 630.83 403.509 625.144L396.208 642.652C393.097 650.069 392.264 658.244 393.816 666.136C395.369 674.028 399.236 681.279 404.925 686.965L412.226 669.457Z" fill="white"/>
<path d="M423.117 680.364C430.533 677.254 438.707 676.421 446.598 677.971C454.489 679.52 461.74 683.382 467.43 689.066L449.922 696.411C442.506 699.523 434.33 700.356 426.438 698.803C418.546 697.251 411.296 693.384 405.61 687.695L423.117 680.364Z" fill="white"/>
<path d="M383.558 697.767C386.789 690.094 387.665 681.633 386.073 673.46C384.481 665.288 380.493 657.774 374.618 651.875L367.004 669.993C363.786 677.676 362.926 686.141 364.534 694.314C366.142 702.486 370.145 709.995 376.034 715.886L383.558 697.767Z" fill="white"/>
<path d="M394.823 709.017C402.505 705.796 410.971 704.936 419.144 706.544C427.316 708.152 434.825 712.156 440.715 718.046L422.581 725.645C414.9 728.865 406.433 729.726 398.261 728.118C390.088 726.51 382.579 722.506 376.689 716.616L394.823 709.017Z" fill="white"/>
<path d="M352.998 727.94C356.328 719.994 357.22 711.238 355.559 702.784C353.898 694.331 349.76 686.563 343.671 680.468L335.804 699.212C332.48 707.159 331.595 715.914 333.262 724.364C334.928 732.815 339.07 740.579 345.161 746.669L352.998 727.94Z" fill="white"/>
<path d="M364.65 739.547C372.592 736.216 381.347 735.324 389.798 736.985C398.249 738.646 406.015 742.785 412.106 748.874L393.362 756.741C385.417 760.072 376.66 760.963 368.207 759.302C359.753 757.641 351.985 753.503 345.891 747.414L364.65 739.547Z" fill="white"/>
<path d="M320.621 759.975C324.075 751.765 325.002 742.711 323.285 733.971C321.568 725.231 317.284 717.202 310.98 710.909L302.86 730.279C299.418 738.486 298.497 747.532 300.214 756.265C301.931 764.997 306.208 773.021 312.5 779.315L320.621 759.975Z" fill="white"/>
<path d="M332.6 771.999C340.808 768.559 349.853 767.64 358.585 769.356C367.317 771.073 375.341 775.349 381.636 781.639L362.266 789.76C354.059 793.205 345.012 794.128 336.279 792.411C327.546 790.694 319.522 786.415 313.23 780.119L332.6 771.999Z" fill="white"/>
<path d="M289.464 790.773C293.038 782.297 294 772.948 292.227 763.922C290.453 754.897 286.026 746.606 279.511 740.113L271.137 760.109C267.564 768.584 266.602 777.934 268.375 786.959C270.149 795.985 274.576 804.275 281.091 810.769L289.464 790.773Z" fill="white"/>
<path d="M301.802 803.11C310.277 799.537 319.627 798.575 328.652 800.348C337.678 802.121 345.968 806.549 352.462 813.063L332.481 821.452C324.002 825.01 314.657 825.963 305.635 824.19C296.613 822.418 288.323 818 281.821 811.499L301.802 803.11Z" fill="white"/>
<path d="M255.805 824.149C259.466 815.421 260.445 805.8 258.62 796.513C256.794 787.226 252.246 778.692 245.554 771.999L236.912 792.606C233.252 801.334 232.272 810.954 234.097 820.241C235.923 829.528 240.471 838.062 247.163 844.756L255.805 824.149Z" fill="white"/>
<path d="M268.5 836.769C277.23 833.111 286.851 832.133 296.138 833.962C305.426 835.79 313.958 840.341 320.65 847.035L300.044 855.677C291.314 859.336 281.693 860.313 272.405 858.485C263.118 856.657 254.585 852.106 247.894 845.411L268.5 836.769Z" fill="white"/>
<path d="M222.772 856.75C226.54 847.754 227.547 837.841 225.666 828.271C223.785 818.701 219.1 809.906 212.208 803.006L203.268 824.223C199.5 833.219 198.492 843.133 200.373 852.703C202.255 862.273 206.939 871.067 213.832 877.968L222.772 856.75Z" fill="white"/>
<path d="M235.839 869.802C244.835 866.034 254.749 865.027 264.319 866.908C273.889 868.789 282.683 873.474 289.584 880.366L268.351 889.306C259.354 893.073 249.44 894.078 239.87 892.194C230.299 890.31 221.506 885.623 214.607 878.728L235.839 869.802Z" fill="white"/>
<path d="M196.742 895.833C196.578 895.666 196.486 895.441 196.486 895.207C196.486 894.973 196.578 894.748 196.742 894.581L466.655 624.683C466.821 624.519 467.046 624.427 467.279 624.429C467.512 624.43 467.736 624.524 467.9 624.69C468.064 624.856 468.155 625.08 468.153 625.314C468.152 625.547 468.058 625.77 467.892 625.934L198.038 895.833C197.955 895.921 197.854 895.991 197.743 896.039C197.631 896.086 197.511 896.111 197.39 896.111C197.269 896.111 197.149 896.086 197.037 896.039C196.926 895.991 196.825 895.921 196.742 895.833Z" fill="white"/>
<path d="M485.444 624.31C473.524 636.23 455.197 637.377 455.197 637.377C455.197 637.377 456.3 619.095 468.265 607.13C480.229 595.166 498.512 594.063 498.512 594.063C498.512 594.063 497.409 612.345 485.444 624.31Z" fill="white"/>
<path d="M1438.12 387.475C1441.57 379.265 1442.5 370.211 1440.78 361.471C1439.07 352.731 1434.78 344.702 1428.48 338.409L1420.36 357.779C1416.92 365.986 1416 375.032 1417.71 383.765C1419.43 392.497 1423.71 400.521 1430 406.815L1438.12 387.475Z" fill="white"/>
<path d="M1465 396.042C1459.87 396.313 1454.83 397.467 1450.1 399.454L1431.62 407.202L1430.73 407.575L1431 407.828C1435.46 412.22 1440.78 415.628 1446.64 417.83C1452.5 420.032 1458.75 420.98 1465 420.612V396.042Z" fill="white"/>
<path d="M1406.96 418.273C1410.54 409.797 1411.5 400.448 1409.73 391.422C1407.95 382.397 1403.53 374.106 1397.01 367.613L1388.64 387.609C1385.06 396.084 1384.1 405.434 1385.88 414.459C1387.65 423.485 1392.08 431.775 1398.59 438.269L1406.96 418.273Z" fill="white"/>
<path d="M1465 436.302V442.619L1449.92 448.937C1441.45 452.5 1432.1 453.458 1423.08 451.688C1414.05 449.918 1405.76 445.5 1399.26 438.999L1419.26 430.61C1426.71 427.47 1434.86 426.343 1442.89 427.342C1450.92 428.341 1458.54 431.431 1465 436.302Z" fill="white"/>
<path d="M1373.31 451.649C1376.97 442.921 1377.95 433.3 1376.12 424.013C1374.29 414.726 1369.75 406.192 1363.05 399.499L1354.41 420.106C1350.75 428.834 1349.77 438.454 1351.6 447.741C1353.42 457.028 1357.97 465.562 1364.66 472.256L1373.31 451.649Z" fill="white"/>
<path d="M1386 464.269C1394.73 460.611 1404.35 459.633 1413.64 461.462C1422.93 463.29 1431.46 467.841 1438.15 474.535L1417.54 483.177C1408.81 486.836 1399.19 487.813 1389.91 485.985C1380.62 484.157 1372.09 479.605 1365.39 472.911L1386 464.269Z" fill="white"/>
<path d="M1340.27 484.25C1344.04 475.254 1345.05 465.341 1343.17 455.771C1341.29 446.201 1336.6 437.406 1329.71 430.506L1320.77 451.723C1317 460.719 1315.99 470.633 1317.87 480.203C1319.76 489.773 1324.44 498.567 1331.33 505.468L1340.27 484.25Z" fill="white"/>
<path d="M1353.34 497.302C1362.34 493.535 1372.25 492.527 1381.82 494.408C1391.39 496.289 1400.18 500.974 1407.08 507.867L1385.85 516.807C1376.85 520.573 1366.94 521.578 1357.37 519.694C1347.8 517.81 1339.01 513.123 1332.11 506.228L1353.34 497.302Z" fill="white"/>
<path d="M1463.05 373.305L1465.01 371.338V373.811L1464.3 374.541L1463.69 375.167L1431.65 407.202L1431.04 407.828L1400.24 438.626L1399.62 439.252L1366.29 472.509L1365.66 473.135L1333 505.796L1315.54 523.333C1315.37 523.499 1315.15 523.592 1314.91 523.592C1314.68 523.592 1314.45 523.499 1314.29 523.333C1314.12 523.167 1314.03 522.942 1314.03 522.707C1314.03 522.472 1314.12 522.247 1314.29 522.081L1331.17 505.2L1331.79 504.574L1398.99 437.375L1429.79 406.576L1430.42 405.951L1462.45 373.916L1463.05 373.305Z" fill="white"/>
<path d="M810.875 271.165C813.876 264.01 814.679 256.124 813.182 248.512C811.686 240.899 807.957 233.904 802.472 228.417L795.394 245.299C792.394 252.454 791.59 260.34 793.087 267.952C794.584 275.565 798.312 282.56 803.798 288.047L810.875 271.165Z" fill="white"/>
<path d="M821.409 281.699C828.564 278.699 836.45 277.896 844.063 279.392C851.676 280.889 858.671 284.617 864.157 290.103L847.276 297.181C840.113 300.194 832.215 301.004 824.59 299.507C816.965 298.01 809.96 294.275 804.468 288.777L821.409 281.699Z" fill="white"/>
<path d="M784.725 296.957C787.837 289.54 788.67 281.365 787.117 273.473C785.565 265.581 781.698 258.33 776.009 252.645L768.708 270.152C765.596 277.569 764.764 285.744 766.316 293.636C767.868 301.528 771.735 308.779 777.424 314.465L784.725 296.957Z" fill="white"/>
<path d="M795.617 307.864C803.033 304.754 811.207 303.921 819.098 305.471C826.989 307.02 834.24 310.882 839.93 316.565L822.422 323.896C815.006 327.008 806.83 327.841 798.938 326.288C791.046 324.736 783.796 320.869 778.11 315.18L795.617 307.864Z" fill="white"/>
<path d="M756.058 325.267C759.289 317.594 760.165 309.133 758.573 300.96C756.981 292.788 752.993 285.274 747.118 279.375L739.504 297.494C736.286 305.176 735.426 313.641 737.034 321.814C738.642 329.986 742.645 337.495 748.534 343.386L756.058 325.267Z" fill="white"/>
<path d="M767.322 336.517C775.004 333.297 783.47 332.436 791.643 334.044C799.816 335.652 807.325 339.656 813.214 345.546L795.081 353.145C787.399 356.365 778.933 357.226 770.76 355.618C762.587 354.01 755.078 350.006 749.189 344.116L767.322 336.517Z" fill="white"/>
<path d="M725.498 355.44C728.828 347.494 729.72 338.738 728.059 330.284C726.398 321.831 722.26 314.063 716.171 307.968L708.304 326.712C704.98 334.659 704.095 343.414 705.762 351.864C707.428 360.315 711.57 368.079 717.661 374.169L725.498 355.44Z" fill="white"/>
<path d="M737.15 367.047C745.092 363.716 753.847 362.824 762.298 364.485C770.749 366.146 778.515 370.285 784.606 376.374L765.862 384.241C757.917 387.572 749.16 388.463 740.707 386.802C732.253 385.141 724.485 381.003 718.391 374.914L737.15 367.047Z" fill="white"/>
<path d="M693.12 387.475C696.574 379.265 697.502 370.211 695.785 361.471C694.068 352.731 689.784 344.702 683.48 338.409L675.36 357.779C671.918 365.986 670.997 375.032 672.714 383.765C674.431 392.497 678.708 400.521 685 406.815L693.12 387.475Z" fill="white"/>
<path d="M705.1 399.499C713.308 396.059 722.353 395.14 731.085 396.856C739.817 398.573 747.841 402.849 754.136 409.139L734.766 417.26C726.559 420.705 717.512 421.628 708.779 419.911C700.046 418.194 692.022 413.915 685.73 407.619L705.1 399.499Z" fill="white"/>
<path d="M661.964 418.273C665.538 409.797 666.5 400.448 664.727 391.422C662.953 382.397 658.526 374.106 652.011 367.613L643.637 387.609C640.064 396.084 639.102 405.434 640.875 414.459C642.649 423.485 647.076 431.775 653.591 438.269L661.964 418.273Z" fill="white"/>
<path d="M674.302 430.61C682.777 427.037 692.127 426.075 701.152 427.848C710.178 429.621 718.468 434.049 724.962 440.563L704.981 448.952C696.502 452.51 687.157 453.463 678.135 451.69C669.113 449.918 660.823 445.5 654.321 438.999L674.302 430.61Z" fill="white"/>
<path d="M628.305 451.649C631.966 442.921 632.946 433.3 631.12 424.013C629.294 414.726 624.746 406.192 618.054 399.499L609.412 420.106C605.752 428.834 604.772 438.454 606.598 447.741C608.423 457.028 612.972 465.562 619.663 472.256L628.305 451.649Z" fill="white"/>
<path d="M641 464.269C649.73 460.611 659.351 459.633 668.638 461.462C677.926 463.29 686.458 467.841 693.15 474.535L672.544 483.177C663.814 486.836 654.193 487.813 644.905 485.985C635.618 484.157 627.085 479.605 620.394 472.911L641 464.269Z" fill="white"/>
<path d="M595.272 484.25C599.04 475.254 600.047 465.341 598.166 455.771C596.285 446.201 591.601 437.406 584.708 430.506L575.768 451.723C572 460.719 570.993 470.633 572.874 480.203C574.755 489.773 579.439 498.567 586.332 505.468L595.272 484.25Z" fill="white"/>
<path d="M608.339 497.302C617.335 493.535 627.249 492.527 636.819 494.408C646.389 496.289 655.183 500.974 662.084 507.867L640.851 516.807C631.854 520.573 621.94 521.578 612.37 519.694C602.799 517.81 594.006 513.123 587.107 506.228L608.339 497.302Z" fill="white"/>
<path d="M569.242 523.333C569.078 523.166 568.986 522.941 568.986 522.707C568.986 522.473 569.078 522.248 569.242 522.081L839.155 252.183C839.321 252.019 839.545 251.927 839.779 251.929C840.012 251.93 840.235 252.024 840.399 252.19C840.563 252.356 840.655 252.58 840.653 252.814C840.652 253.047 840.558 253.27 840.392 253.434L570.538 523.333C570.454 523.421 570.354 523.491 570.242 523.539C570.131 523.586 570.011 523.611 569.89 523.611C569.769 523.611 569.649 523.586 569.537 523.539C569.426 523.491 569.325 523.421 569.242 523.333Z" fill="white"/>
<path d="M857.944 251.81C846.024 263.73 827.697 264.877 827.697 264.877C827.697 264.877 828.8 246.595 840.765 234.63C852.729 222.666 871.012 221.563 871.012 221.563C871.012 221.563 869.909 239.845 857.944 251.81Z" fill="white"/>
<path d="M65.8752 271.165C68.8758 264.01 69.6789 256.124 68.1823 248.512C66.6858 240.899 62.9573 233.904 57.4716 228.417L50.3941 245.299C47.3936 252.454 46.5905 260.34 48.087 267.952C49.5836 275.565 53.3121 282.56 58.7977 288.047L65.8752 271.165Z" fill="white"/>
<path d="M76.4091 281.699C83.5639 278.699 91.4499 277.896 99.0627 279.392C106.675 280.889 113.671 284.617 119.157 290.103L102.275 297.181C95.1131 300.194 87.215 301.004 79.59 299.507C71.965 298.01 64.9593 294.275 59.4678 288.777L76.4091 281.699Z" fill="white"/>
<path d="M39.7257 296.957C42.8374 289.54 43.6701 281.365 42.1177 273.473C40.5653 265.581 36.6982 258.33 31.0092 252.645L23.7082 270.152C20.5965 277.569 19.7638 285.744 21.3162 293.636C22.8685 301.528 26.7357 308.779 32.4247 314.465L39.7257 296.957Z" fill="white"/>
<path d="M50.6179 307.864C58.034 304.754 66.2075 303.921 74.0984 305.471C81.9894 307.02 89.2409 310.882 94.9305 316.565L77.423 323.896C70.0061 327.008 61.8307 327.841 53.9388 326.288C46.047 324.736 38.796 320.869 33.1104 315.18L50.6179 307.864Z" fill="white"/>
<path d="M11.0578 325.267C14.2797 317.587 15.143 309.121 13.5376 300.949C11.9323 292.776 7.93101 285.266 2.0433 279.375L-5.57058 297.494C-8.78862 305.176 -9.6484 313.641 -8.04048 321.814C-6.43256 329.986 -2.42966 337.495 3.45882 343.386L11.0578 325.267Z" fill="white"/>
<path d="M22.3228 336.517C30.0046 333.297 38.4709 332.436 46.6436 334.044C54.8163 335.652 62.3254 339.656 68.2148 345.546L50.0815 353.145C42.3997 356.365 33.9333 357.226 25.7606 355.618C17.5879 354.01 10.0788 350.006 4.18945 344.116L22.3228 336.517Z" fill="white"/>
<path d="M39.6064 376.374L20.8622 384.241C13.2655 387.43 4.91774 388.389 -3.2042 387.006C-11.3261 385.624 -18.8863 381.956 -25 376.434V374.243L-7.85009 367.047C0.0926418 363.716 8.84705 362.824 17.2983 364.485C25.7496 366.146 33.5152 370.285 39.6064 376.374Z" fill="white"/>
<path d="M9.13591 409.095L-10.2341 417.215C-14.9258 419.183 -19.9201 420.332 -25 420.612V396.042C-18.7117 395.69 -12.4199 396.671 -6.53715 398.92C-0.654366 401.17 4.68665 404.637 9.13591 409.095Z" fill="white"/>
<path d="M95.392 253.479L84.068 264.803L60.4068 288.464L59.7959 289.09L33.9891 314.882L33.3782 315.508L5.06819 343.818L4.45728 344.443L-25 373.886V371.338L3.20569 343.117L3.83151 342.506L32.1415 314.196L32.7673 313.585L58.5443 287.749L59.1701 287.138L94.1553 252.153C94.2347 252.068 94.3305 252.001 94.4369 251.955C94.5432 251.909 94.6578 251.886 94.7737 251.886C94.8895 251.886 95.0041 251.909 95.1105 251.955C95.2168 252.001 95.3126 252.068 95.392 252.153C95.4914 252.232 95.5717 252.333 95.6268 252.448C95.6819 252.563 95.7106 252.688 95.7106 252.816C95.7106 252.943 95.6819 253.069 95.6268 253.184C95.5717 253.298 95.4914 253.399 95.392 253.479Z" fill="white"/>
<path d="M112.944 251.81C101.024 263.73 82.6973 264.877 82.6973 264.877C82.6973 264.877 83.7999 246.595 95.7646 234.63C107.729 222.666 126.012 221.563 126.012 221.563C126.012 221.563 124.909 239.845 112.944 251.81Z" fill="white"/>
<path d="M1374.38 101.231C1371.38 108.386 1370.57 116.272 1372.07 123.884C1373.57 131.497 1377.3 138.492 1382.78 143.979L1389.87 127.097C1392.87 119.941 1393.67 112.054 1392.17 104.441C1390.67 96.8284 1386.94 89.834 1381.46 84.3491L1374.38 101.231Z" fill="white"/>
<path d="M1363.84 90.6964C1356.69 93.6969 1348.8 94.5 1341.19 93.0035C1333.58 91.5069 1326.58 87.7784 1321.1 82.2928L1337.98 75.2153C1345.13 72.2148 1353.02 71.4116 1360.63 72.9082C1368.24 74.4047 1375.24 78.1333 1380.73 83.6189L1363.84 90.6964Z" fill="white"/>
<path d="M1400.54 75.4388C1397.43 82.8556 1396.6 91.031 1398.15 98.9229C1399.7 106.815 1403.57 114.066 1409.26 119.751L1416.59 102.244C1419.71 94.8313 1420.55 86.6585 1419 78.7669C1417.46 70.8752 1413.6 63.622 1407.92 57.9313L1400.54 75.4388Z" fill="white"/>
<path d="M1389.65 64.5321C1382.23 67.6396 1374.06 68.4715 1366.17 66.9221C1358.28 65.3726 1351.03 61.5118 1345.34 55.8305L1362.85 48.4997C1370.26 45.3888 1378.44 44.5564 1386.34 46.1087C1394.23 47.661 1401.48 51.5276 1407.17 57.2162L1389.65 64.5321Z" fill="white"/>
<path d="M1429.2 47.1288C1425.97 54.8102 1425.11 63.2771 1426.72 71.4502C1428.33 79.6233 1432.33 87.1325 1438.22 93.0208L1445.82 74.9024C1449.05 67.2209 1449.91 58.7541 1448.3 50.581C1446.69 42.4078 1442.69 34.8986 1436.79 29.0104L1429.2 47.1288Z" fill="white"/>
<path d="M1417.95 35.9388C1410.26 39.1609 1401.8 40.0228 1393.62 38.4147C1385.45 36.8066 1377.94 32.8014 1372.05 26.9094L1390.17 19.3104C1397.85 16.0884 1406.32 15.2265 1414.49 16.8346C1422.67 18.4427 1430.18 22.4479 1436.06 28.3398L1417.95 35.9388Z" fill="white"/>
<path d="M1405.34 0.074585H1460.68L1448.15 5.3492C1441.17 8.28014 1433.55 9.33536 1426.04 8.41007C1418.53 7.48478 1411.4 4.61116 1405.34 0.074585Z" fill="white"/>
<path d="M1463.75 0.074585H1465V1.3262L1436.42 29.9789L1408.11 58.2889L1407.46 58.9445L1381.68 84.7215L1357.42 108.949L1346.11 120.258C1346.03 120.34 1345.93 120.405 1345.83 120.45C1345.72 120.494 1345.6 120.517 1345.49 120.517C1345.37 120.517 1345.26 120.494 1345.15 120.45C1345.04 120.405 1344.94 120.34 1344.86 120.258C1344.78 120.176 1344.71 120.078 1344.67 119.971C1344.62 119.864 1344.6 119.748 1344.6 119.632C1344.6 119.516 1344.62 119.401 1344.67 119.294C1344.71 119.186 1344.78 119.089 1344.86 119.006L1356.19 107.682L1379.83 84.0361L1380.46 83.4103L1435.17 28.6975L1435.8 28.0717L1463.75 0.074585Z" fill="white"/>
<path d="M1327.31 120.586C1339.23 108.666 1357.57 107.518 1357.57 107.518C1357.57 107.518 1356.45 125.801 1344.49 137.765C1332.52 149.73 1314.24 150.833 1314.24 150.833C1314.24 150.833 1315.36 132.55 1327.31 120.586Z" fill="white"/>
<path d="M1001.88 473.731C998.877 480.886 998.074 488.771 999.571 496.384C1001.07 503.997 1004.8 510.992 1010.28 516.479L1017.37 499.597C1020.37 492.441 1021.17 484.554 1019.67 476.941C1018.17 469.328 1014.44 462.334 1008.96 456.849L1001.88 473.731Z" fill="white"/>
<path d="M991.344 463.196C984.189 466.197 976.303 467 968.69 465.504C961.077 464.007 954.082 460.278 948.596 454.793L965.477 447.715C972.632 444.715 980.518 443.912 988.131 445.408C995.744 446.905 1002.74 450.633 1008.23 456.119L991.344 463.196Z" fill="white"/>
<path d="M1028.04 447.939C1024.93 455.356 1024.1 463.531 1025.65 471.423C1027.2 479.315 1031.07 486.566 1036.76 492.251L1044.09 474.744C1047.21 467.331 1048.05 459.159 1046.5 451.267C1044.96 443.375 1041.1 436.122 1035.42 430.431L1028.04 447.939Z" fill="white"/>
<path d="M1017.15 437.032C1009.73 440.14 1001.56 440.972 993.671 439.422C985.78 437.873 978.528 434.012 972.838 428.33L990.345 421C997.765 417.889 1005.94 417.056 1013.84 418.609C1021.73 420.161 1028.98 424.028 1034.67 429.716L1017.15 437.032Z" fill="white"/>
<path d="M1056.7 419.629C1053.47 427.31 1052.61 435.777 1054.22 443.95C1055.83 452.123 1059.83 459.633 1065.72 465.521L1073.32 447.402C1076.55 439.721 1077.41 431.254 1075.8 423.081C1074.19 414.908 1070.19 407.399 1064.29 401.51L1056.7 419.629Z" fill="white"/>
<path d="M1045.45 408.439C1037.76 411.661 1029.3 412.523 1021.12 410.915C1012.95 409.307 1005.44 405.301 999.554 399.409L1017.67 391.81C1025.35 388.588 1033.82 387.726 1041.99 389.335C1050.17 390.943 1057.68 394.948 1063.56 400.84L1045.45 408.439Z" fill="white"/>
<path d="M1087.23 389.456C1083.89 397.397 1082.99 406.151 1084.64 414.604C1086.3 423.058 1090.43 430.828 1096.51 436.928L1104.36 418.184C1107.69 410.239 1108.59 401.481 1106.93 393.027C1105.27 384.573 1101.13 376.805 1095.03 370.712L1087.23 389.456Z" fill="white"/>
<path d="M1075.65 377.849C1067.7 381.179 1058.95 382.071 1050.49 380.41C1042.04 378.749 1034.27 374.611 1028.18 368.522L1046.94 360.655C1054.88 357.323 1063.63 356.432 1072.08 358.093C1080.54 359.754 1088.3 363.893 1094.39 369.982L1075.65 377.849Z" fill="white"/>
<path d="M1119.63 357.421C1116.19 365.627 1115.28 374.67 1116.99 383.399C1118.71 392.128 1122.98 400.15 1129.27 406.442L1137.39 387.072C1140.84 378.872 1141.77 369.831 1140.06 361.1C1138.35 352.37 1134.08 344.347 1127.8 338.051L1119.63 357.421Z" fill="white"/>
<path d="M1107.67 345.442C1099.46 348.883 1090.42 349.804 1081.68 348.087C1072.95 346.371 1064.93 342.094 1058.63 335.801L1078 327.681C1086.21 324.237 1095.25 323.314 1103.98 325.031C1112.71 326.748 1120.73 331.027 1127.02 337.321L1107.67 345.442Z" fill="white"/>
<path d="M1150.79 326.623C1147.23 335.101 1146.28 344.447 1148.05 353.469C1149.82 362.492 1154.24 370.782 1160.74 377.283L1169.13 357.287C1172.69 348.809 1173.64 339.463 1171.87 330.441C1170.1 321.418 1165.68 313.128 1159.18 306.627L1150.79 326.623Z" fill="white"/>
<path d="M1138.47 314.286C1129.99 317.847 1120.64 318.803 1111.62 317.03C1102.6 315.257 1094.31 310.837 1087.81 304.333L1107.8 295.944C1116.28 292.384 1125.63 291.43 1134.65 293.203C1143.67 294.975 1151.96 299.395 1158.46 305.897L1138.47 314.286Z" fill="white"/>
<path d="M1184.42 293.321C1180.76 302.051 1179.78 311.672 1181.61 320.96C1183.44 330.247 1187.99 338.78 1194.68 345.471L1203.33 324.865C1206.98 316.135 1207.96 306.514 1206.13 297.227C1204.31 287.939 1199.75 279.407 1193.06 272.715L1184.42 293.321Z" fill="white"/>
<path d="M1171.75 280.627C1163.02 284.285 1153.4 285.263 1144.11 283.434C1134.83 281.606 1126.29 277.055 1119.6 270.361L1140.21 261.719C1148.94 258.06 1158.56 257.083 1167.85 258.911C1177.14 260.739 1185.67 265.29 1192.36 271.985L1171.75 280.627Z" fill="white"/>
<path d="M1217.48 260.646C1213.71 269.642 1212.71 279.555 1214.59 289.125C1216.47 298.695 1221.15 307.49 1228.05 314.39L1236.99 293.173C1240.75 284.177 1241.76 274.263 1239.88 264.693C1238 255.123 1233.31 246.329 1226.42 239.428L1217.48 260.646Z" fill="white"/>
<path d="M1204.43 247.593C1195.44 251.369 1185.53 252.386 1175.96 250.516C1166.39 248.645 1157.59 243.972 1150.68 237.089L1171.92 228.149C1180.91 224.383 1190.83 223.378 1200.4 225.262C1209.97 227.145 1218.76 231.833 1225.66 238.728L1204.43 247.593Z" fill="white"/>
<path d="M1243.51 221.563C1243.68 221.73 1243.77 221.955 1243.77 222.189C1243.77 222.423 1243.68 222.648 1243.51 222.815L973.613 492.713C973.447 492.879 973.222 492.973 972.987 492.973C972.752 492.973 972.527 492.879 972.361 492.713C972.195 492.547 972.102 492.322 972.102 492.088C972.102 491.853 972.195 491.628 972.361 491.462L1242.26 221.563C1242.43 221.399 1242.65 221.308 1242.89 221.308C1243.12 221.308 1243.34 221.399 1243.51 221.563Z" fill="white"/>
<path d="M954.809 493.086C966.729 481.166 985.071 480.018 985.071 480.018C985.071 480.018 983.954 498.301 971.989 510.265C960.024 522.23 941.742 523.333 941.742 523.333C941.742 523.333 942.859 505.05 954.809 493.086Z" fill="white"/>
<path d="M629.378 846.231C626.378 853.386 625.575 861.271 627.071 868.884C628.568 876.497 632.296 883.492 637.782 888.979L644.874 872.097C647.873 864.941 648.674 857.054 647.174 849.441C645.675 841.828 641.944 834.834 636.456 829.349L629.378 846.231Z" fill="white"/>
<path d="M618.844 835.696C611.689 838.697 603.803 839.5 596.19 838.003C588.578 836.507 581.583 832.778 576.096 827.293L592.978 820.215C600.132 817.215 608.018 816.412 615.631 817.908C623.244 819.405 630.239 823.133 635.726 828.619L618.844 835.696Z" fill="white"/>
<path d="M655.543 820.439C652.431 827.856 651.598 836.031 653.151 843.923C654.703 851.815 658.57 859.066 664.259 864.751L671.59 847.244C674.707 839.831 675.547 831.659 674.003 823.767C672.458 815.875 668.6 808.622 662.918 802.931L655.543 820.439Z" fill="white"/>
<path d="M644.65 809.532C637.234 812.639 629.061 813.471 621.171 811.922C613.28 810.372 606.028 806.512 600.338 800.83L617.845 793.5C625.265 790.389 633.442 789.556 641.336 791.109C649.23 792.661 656.484 796.528 662.173 802.216L644.65 809.532Z" fill="white"/>
<path d="M684.195 792.129C680.973 799.81 680.111 808.277 681.719 816.45C683.328 824.623 687.333 832.133 693.225 838.021L700.824 819.902C704.046 812.221 704.908 803.754 703.3 795.581C701.692 787.408 697.686 779.899 691.794 774.01L684.195 792.129Z" fill="white"/>
<path d="M672.946 780.939C665.264 784.161 656.797 785.023 648.624 783.415C640.451 781.807 632.942 777.801 627.054 771.91L645.172 764.311C652.854 761.089 661.32 760.227 669.494 761.835C677.667 763.443 685.176 767.448 691.064 773.34L672.946 780.939Z" fill="white"/>
<path d="M714.725 761.956C711.39 769.897 710.491 778.651 712.144 787.104C713.797 795.558 717.927 803.328 724.008 809.428L731.86 790.684C735.195 782.739 736.088 773.982 734.427 765.527C732.766 757.073 728.625 749.305 722.533 743.212L714.725 761.956Z" fill="white"/>
<path d="M703.148 750.349C695.203 753.679 686.446 754.571 677.993 752.91C669.54 751.249 661.771 747.111 655.677 741.022L674.436 733.155C682.379 729.824 691.133 728.932 699.584 730.593C708.035 732.254 715.801 736.393 721.892 742.482L703.148 750.349Z" fill="white"/>
<path d="M747.133 729.921C743.695 738.127 742.775 747.17 744.492 755.899C746.209 764.628 750.484 772.65 756.773 778.942L764.894 759.572C768.341 751.372 769.27 742.331 767.561 733.6C765.852 724.87 761.583 716.847 755.298 710.551L747.133 729.921Z" fill="white"/>
<path d="M735.168 717.942C726.961 721.383 717.915 722.304 709.183 720.587C700.45 718.871 692.426 714.594 686.132 708.301L705.502 700.181C713.707 696.737 722.751 695.814 731.482 697.531C740.213 699.248 748.234 703.527 754.523 709.821L735.168 717.942Z" fill="white"/>
<path d="M778.289 699.123C774.729 707.601 773.775 716.947 775.548 725.969C777.32 734.992 781.74 743.282 788.242 749.783L796.631 729.787C800.19 721.309 801.145 711.963 799.372 702.941C797.599 693.918 793.18 685.628 786.678 679.127L778.289 699.123Z" fill="white"/>
<path d="M765.966 686.786C757.489 690.347 748.142 691.303 739.119 689.53C730.097 687.757 721.806 683.337 715.306 676.833L735.302 668.444C743.78 664.884 753.126 663.93 762.148 665.703C771.171 667.475 779.461 671.895 785.962 678.397L765.966 686.786Z" fill="white"/>
<path d="M811.918 665.822C808.26 674.551 807.282 684.173 809.111 693.46C810.939 702.747 815.49 711.28 822.184 717.972L830.826 697.365C834.485 688.635 835.462 679.014 833.634 669.727C831.806 660.44 827.254 651.907 820.56 645.215L811.918 665.822Z" fill="white"/>
<path d="M799.253 653.127C790.523 656.785 780.902 657.763 771.615 655.934C762.328 654.106 753.795 649.555 747.103 642.861L767.71 634.219C776.44 630.56 786.061 629.583 795.348 631.411C804.635 633.239 813.168 637.79 819.86 644.485L799.253 653.127Z" fill="white"/>
<path d="M844.981 633.146C841.213 642.142 840.206 652.055 842.087 661.625C843.968 671.195 848.653 679.99 855.545 686.89L864.485 665.673C868.253 656.677 869.261 646.763 867.379 637.193C865.498 627.623 860.814 618.829 853.921 611.928L844.981 633.146Z" fill="white"/>
<path d="M831.929 620.093C822.939 623.869 813.029 624.886 803.459 623.015C793.889 621.145 785.092 616.471 778.185 609.589L799.417 600.649C808.414 596.883 818.329 595.878 827.899 597.762C837.469 599.645 846.263 604.333 853.161 611.228L831.929 620.093Z" fill="white"/>
<path d="M871.011 594.063C871.175 594.23 871.267 594.455 871.267 594.689C871.267 594.923 871.175 595.148 871.011 595.315L601.113 865.213C601.031 865.295 600.933 865.361 600.826 865.405C600.718 865.45 600.603 865.472 600.487 865.472C600.371 865.472 600.256 865.45 600.148 865.405C600.041 865.361 599.943 865.295 599.861 865.213C599.779 865.131 599.714 865.034 599.669 864.926C599.625 864.819 599.602 864.704 599.602 864.587C599.602 864.471 599.625 864.356 599.669 864.249C599.714 864.141 599.779 864.044 599.861 863.962L869.76 594.063C869.927 593.899 870.152 593.808 870.386 593.808C870.62 593.808 870.844 593.899 871.011 594.063Z" fill="white"/>
<path d="M582.309 865.586C594.229 853.666 612.571 852.519 612.571 852.519C612.571 852.519 611.454 870.801 599.489 882.766C587.524 894.73 569.242 895.833 569.242 895.833C569.242 895.833 570.359 877.551 582.309 865.586Z" fill="white"/>
<path d="M256.878 1218.73C253.877 1225.89 253.074 1233.77 254.571 1241.38C256.067 1249 259.796 1255.99 265.282 1261.48L272.374 1244.6C275.373 1237.44 276.173 1229.55 274.674 1221.94C273.175 1214.33 269.444 1207.33 263.956 1201.85L256.878 1218.73Z" fill="white"/>
<path d="M246.344 1208.2C239.189 1211.2 231.303 1212 223.69 1210.5C216.077 1209.01 209.082 1205.28 203.596 1199.79L220.477 1192.72C227.632 1189.71 235.518 1188.91 243.131 1190.41C250.744 1191.9 257.739 1195.63 263.226 1201.12L246.344 1208.2Z" fill="white"/>
<path d="M283.043 1192.94C279.931 1200.36 279.098 1208.53 280.651 1216.42C282.203 1224.31 286.07 1231.57 291.759 1237.25L299.09 1219.74C302.207 1212.33 303.047 1204.16 301.503 1196.27C299.958 1188.38 296.1 1181.12 290.418 1175.43L283.043 1192.94Z" fill="white"/>
<path d="M272.15 1182.03C264.734 1185.14 256.561 1185.97 248.671 1184.42C240.78 1182.87 233.528 1179.01 227.838 1173.33L245.345 1166C252.765 1162.89 260.942 1162.06 268.836 1163.61C276.73 1165.16 283.984 1169.03 289.673 1174.72L272.15 1182.03Z" fill="white"/>
<path d="M311.696 1164.63C308.474 1172.31 307.612 1180.78 309.22 1188.95C310.828 1197.12 314.833 1204.63 320.725 1210.52L328.324 1192.4C331.546 1184.72 332.408 1176.25 330.8 1168.08C329.192 1159.91 325.187 1152.4 319.295 1146.51L311.696 1164.63Z" fill="white"/>
<path d="M300.446 1153.44C292.764 1156.66 284.297 1157.52 276.124 1155.91C267.951 1154.31 260.442 1150.3 254.554 1144.41L272.672 1136.81C280.354 1133.59 288.82 1132.73 296.994 1134.33C305.167 1135.94 312.676 1139.95 318.564 1145.84L300.446 1153.44Z" fill="white"/>
<path d="M342.225 1134.46C338.89 1142.4 337.991 1151.15 339.644 1159.6C341.297 1168.06 345.427 1175.83 351.508 1181.93L359.36 1163.18C362.695 1155.24 363.588 1146.48 361.927 1138.03C360.266 1129.57 356.125 1121.8 350.033 1115.71L342.225 1134.46Z" fill="white"/>
<path d="M330.648 1122.85C322.703 1126.18 313.946 1127.07 305.493 1125.41C297.04 1123.75 289.271 1119.61 283.177 1113.52L301.936 1105.65C309.879 1102.32 318.633 1101.43 327.084 1103.09C335.535 1104.75 343.301 1108.89 349.392 1114.98L330.648 1122.85Z" fill="white"/>
<path d="M374.633 1102.42C371.197 1110.63 370.28 1119.67 371.999 1128.4C373.719 1137.13 377.997 1145.15 384.288 1151.44L392.409 1132.07C395.855 1123.87 396.781 1114.83 395.069 1106.1C393.358 1097.37 389.086 1089.34 382.798 1083.05L374.633 1102.42Z" fill="white"/>
<path d="M362.668 1090.44C354.461 1093.88 345.415 1094.8 336.683 1093.09C327.95 1091.37 319.926 1087.09 313.632 1080.8L333.002 1072.68C341.207 1069.24 350.251 1068.31 358.982 1070.03C367.713 1071.75 375.734 1076.03 382.023 1082.32L362.668 1090.44Z" fill="white"/>
<path d="M405.789 1071.62C402.229 1080.1 401.275 1089.45 403.048 1098.47C404.82 1107.49 409.24 1115.78 415.742 1122.28L424.131 1102.29C427.69 1093.81 428.645 1084.46 426.872 1075.44C425.099 1066.42 420.68 1058.13 414.178 1051.63L405.789 1071.62Z" fill="white"/>
<path d="M393.467 1059.29C384.989 1062.85 375.643 1063.8 366.62 1062.03C357.597 1060.26 349.307 1055.84 342.807 1049.33L362.802 1040.94C371.28 1037.38 380.626 1036.43 389.649 1038.2C398.671 1039.98 406.961 1044.39 413.462 1050.9L393.467 1059.29Z" fill="white"/>
<path d="M439.418 1038.32C435.76 1047.05 434.783 1056.67 436.611 1065.96C438.439 1075.25 442.99 1083.78 449.684 1090.47L458.326 1069.86C461.985 1061.14 462.962 1051.51 461.134 1042.23C459.306 1032.94 454.755 1024.41 448.06 1017.71L439.418 1038.32Z" fill="white"/>
<path d="M426.753 1025.63C418.023 1029.29 408.402 1030.26 399.115 1028.43C389.828 1026.61 381.295 1022.06 374.603 1015.36L395.21 1006.72C403.94 1003.06 413.561 1002.08 422.848 1003.91C432.135 1005.74 440.668 1010.29 447.36 1016.98L426.753 1025.63Z" fill="white"/>
<path d="M472.481 1005.65C468.713 1014.64 467.706 1024.56 469.587 1034.13C471.468 1043.7 476.153 1052.49 483.045 1059.39L491.985 1038.17C495.753 1029.18 496.761 1019.26 494.88 1009.69C492.998 1000.12 488.314 991.329 481.421 984.428L472.481 1005.65Z" fill="white"/>
<path d="M459.429 992.593C450.439 996.369 440.529 997.386 430.959 995.515C421.389 993.645 412.592 988.971 405.685 982.089L426.917 973.149C435.914 969.383 445.829 968.378 455.399 970.261C464.969 972.145 473.763 976.833 480.661 983.728L459.429 992.593Z" fill="white"/>
<path d="M498.511 966.563C498.675 966.73 498.767 966.955 498.767 967.189C498.767 967.423 498.675 967.648 498.511 967.815L228.613 1237.71C228.446 1237.88 228.221 1237.97 227.987 1237.97C227.753 1237.97 227.528 1237.88 227.361 1237.71C227.197 1237.55 227.105 1237.32 227.105 1237.09C227.105 1236.85 227.197 1236.63 227.361 1236.46L497.26 966.563C497.427 966.399 497.651 966.308 497.885 966.308C498.119 966.308 498.344 966.399 498.511 966.563Z" fill="white"/>
<path d="M209.809 1238.09C221.729 1226.17 240.071 1225.02 240.071 1225.02C240.071 1225.02 238.954 1243.3 226.989 1255.27C215.024 1267.23 196.742 1268.33 196.742 1268.33C196.742 1268.33 197.86 1250.05 209.809 1238.09Z" fill="white"/>
<path d="M23.2761 1490.07H-1.29395C-1.04661 1484.86 0.113254 1479.72 2.13304 1474.91L9.88105 1456.45L10.2536 1455.55L10.5069 1455.82C14.9292 1460.31 18.3529 1465.68 20.5535 1471.58C22.7541 1477.49 23.682 1483.79 23.2761 1490.07Z" fill="white"/>
<path d="M9.52332 1454.82L8.62931 1455.19L-9.83181 1462.94C-14.6488 1464.96 -19.7825 1466.12 -25 1466.37V1441.8C-18.7104 1441.39 -12.4055 1442.32 -6.49932 1444.52C-0.59313 1446.72 4.78087 1450.14 9.27 1454.57L9.52332 1454.82Z" fill="white"/>
<path d="M51.6311 1474.73L45.1944 1490.07H39.2344C34.29 1483.61 31.1358 1475.96 30.0895 1467.89C29.0432 1459.82 30.1417 1451.62 33.2744 1444.11L41.2905 1425.02L41.663 1424.13L41.9163 1424.4C48.3149 1430.89 52.6506 1439.14 54.379 1448.09C56.1074 1457.05 55.1514 1466.31 51.6311 1474.73Z" fill="white"/>
<path d="M40.9474 1423.4L40.0534 1423.77L20.9516 1431.79C13.4441 1434.92 5.24351 1436.02 -2.82384 1434.97C-10.8912 1433.92 -18.5402 1430.77 -25 1425.83V1419.87L-9.65302 1413.43C-1.24111 1409.91 8.02395 1408.95 16.9787 1410.67C25.9334 1412.4 34.1787 1416.73 40.6792 1423.13L40.9474 1423.4Z" fill="white"/>
<path d="M66.9183 1410.82C63.2599 1419.55 62.2825 1429.17 64.1108 1438.46C65.939 1447.75 70.4901 1456.28 77.1844 1462.97L85.8264 1442.36C89.4849 1433.64 90.4623 1424.01 88.634 1414.73C86.8058 1405.44 82.2547 1396.91 75.5603 1390.21L66.9183 1410.82Z" fill="white"/>
<path d="M54.253 1398.13C45.5232 1401.78 35.902 1402.76 26.6149 1400.93C17.3277 1399.11 8.79482 1394.55 2.10303 1387.86L22.7097 1379.22C31.4395 1375.56 41.0607 1374.58 50.3479 1376.41C59.6351 1378.24 68.1679 1382.79 74.8597 1389.48L54.253 1398.13Z" fill="white"/>
<path d="M99.9811 1378.15C96.2132 1387.14 95.2057 1397.05 97.0868 1406.63C98.9679 1416.2 103.653 1424.99 110.545 1431.89L119.485 1410.67C123.253 1401.68 124.261 1391.76 122.38 1382.19C120.498 1372.62 115.814 1363.83 108.921 1356.93L99.9811 1378.15Z" fill="white"/>
<path d="M86.9289 1365.09C77.9329 1368.86 68.0196 1369.87 58.4496 1367.99C48.8795 1366.11 40.0851 1361.42 33.1846 1354.53L54.4171 1345.59C63.4144 1341.82 73.3286 1340.82 82.8988 1342.7C92.4689 1344.59 101.263 1349.27 108.161 1356.17L86.9289 1365.09Z" fill="white"/>
<path d="M126.011 1340.31L109.144 1357.18L108.489 1357.84L75.8578 1390.48L41.3196 1425.02L10.5213 1455.82L9.89555 1456.45L-22.7653 1489.11L-23.7338 1490.07H-24.9854V1488.82L-24.0169 1487.85L-23.391 1487.23L73.9804 1389.86L74.6062 1389.23L107.252 1356.59L124.775 1339.06C124.942 1338.9 125.166 1338.81 125.4 1338.81C125.634 1338.81 125.859 1338.9 126.026 1339.06C126.188 1339.23 126.277 1339.46 126.274 1339.69C126.271 1339.93 126.177 1340.15 126.011 1340.31Z" fill="white"/>
<path d="M1090.83 0.074585L1090.53 0.804693L1090.16 1.68379L1089.91 1.4156C1089.48 0.983499 1089.04 0.536485 1088.64 0.074585H1090.83Z" fill="white"/>
<path d="M1157.11 3.87409L1138.36 11.7413C1130.48 15.0471 1121.79 15.9495 1113.39 14.3351C1104.99 12.7208 1097.26 8.66161 1091.16 2.66719L1090.89 2.4139L1091.77 2.0414L1096.46 0.074585H1152.76C1154.29 1.24361 1155.74 2.5129 1157.11 3.87409Z" fill="white"/>
<path d="M1069.03 0.074585C1068.76 5.2007 1067.61 10.2415 1065.62 14.9746L1057.87 33.4506L1057.5 34.3446L1057.25 34.0764C1052.85 29.6194 1049.45 24.2898 1047.24 18.4327C1045.04 12.5755 1044.09 6.32125 1044.46 0.074585H1069.03Z" fill="white"/>
<path d="M1077.6 26.9989C1085.81 23.5595 1094.85 22.6396 1103.59 24.3563C1112.32 26.073 1120.34 30.3487 1126.64 36.6392L1107.27 44.7597C1099.06 48.2052 1090.01 49.1283 1081.28 47.4113C1072.55 45.6944 1064.52 41.4152 1058.23 35.1194L1077.6 26.9989Z" fill="white"/>
<path d="M1034.46 45.7728L1026.08 65.7388C1019.57 59.2371 1015.16 50.9461 1013.39 41.9233C1011.62 32.9005 1012.57 23.555 1016.14 15.0788L1022.46 0H1028.77C1033.65 6.46169 1036.74 14.0916 1037.74 22.1251C1038.74 30.1586 1037.61 38.3136 1034.46 45.7728Z" fill="white"/>
<path d="M1046.8 58.1101C1055.28 54.5365 1064.63 53.5747 1073.65 55.3479C1082.68 57.1212 1090.97 61.5487 1097.46 68.0633L1077.48 76.452C1069 80.0096 1059.66 80.9628 1050.64 79.1902C1041.61 77.4177 1033.32 72.9996 1026.82 66.4988L1046.8 58.1101Z" fill="white"/>
<path d="M1000.81 79.1488C1004.47 70.4204 1005.45 60.8001 1003.62 51.513C1001.79 42.2259 997.246 33.6922 990.554 26.9988L981.912 47.6055C978.252 56.3339 977.272 65.9542 979.098 75.2413C980.923 84.5284 985.472 93.062 992.163 99.7555L1000.81 79.1488Z" fill="white"/>
<path d="M1013.5 91.7692C1022.23 88.1107 1031.85 87.1334 1041.14 88.9616C1050.43 90.7898 1058.96 95.3409 1065.65 102.035L1045.04 110.677C1036.31 114.336 1026.69 115.313 1017.41 113.485C1008.12 111.657 999.585 107.105 992.893 100.411L1013.5 91.7692Z" fill="white"/>
<path d="M967.772 111.75C971.54 102.754 972.547 92.8408 970.666 83.2707C968.785 73.7007 964.101 64.9062 957.208 58.0057L948.268 79.2233C944.5 88.2193 943.493 98.1326 945.374 107.703C947.255 117.273 951.94 126.067 958.832 132.968L967.772 111.75Z" fill="white"/>
<path d="M980.839 124.802C989.835 121.034 999.749 120.027 1009.32 121.908C1018.89 123.789 1027.68 128.474 1034.58 135.367L1013.35 144.307C1004.35 148.073 994.44 149.078 984.87 147.194C975.299 145.31 966.506 140.623 959.607 133.728L980.839 124.802Z" fill="white"/>
<path d="M1091.26 0.074585H1093.74L1091.78 2.0414L1091.17 2.66719L1027.71 66.1263L1027.09 66.7521L993.788 100.009L993.162 100.635L960.501 133.295L943.038 150.833C942.872 150.999 942.647 151.092 942.412 151.092C942.178 151.092 941.953 150.999 941.787 150.833C941.621 150.667 941.527 150.442 941.527 150.207C941.527 149.972 941.621 149.747 941.787 149.581L958.668 132.699L959.294 132.074L1026.49 64.8747L1057.29 34.0764L1057.92 33.4655L1089.95 1.43049L1090.58 0.819585L1091.26 0.074585Z" fill="white"/>
<path d="M1374.38 846.231C1371.38 853.386 1370.57 861.271 1372.07 868.884C1373.57 876.497 1377.3 883.492 1382.78 888.979L1389.87 872.097C1392.87 864.941 1393.67 857.054 1392.17 849.441C1390.67 841.828 1386.94 834.834 1381.46 829.349L1374.38 846.231Z" fill="white"/>
<path d="M1363.84 835.696C1356.69 838.697 1348.8 839.5 1341.19 838.003C1333.58 836.507 1326.58 832.778 1321.1 827.293L1337.98 820.215C1345.13 817.215 1353.02 816.412 1360.63 817.908C1368.24 819.405 1375.24 823.133 1380.73 828.619L1363.84 835.696Z" fill="white"/>
<path d="M1400.54 820.439C1397.43 827.856 1396.6 836.031 1398.15 843.923C1399.7 851.815 1403.57 859.066 1409.26 864.751L1416.59 847.244C1419.71 839.831 1420.55 831.659 1419 823.767C1417.46 815.875 1413.6 808.622 1407.92 802.931L1400.54 820.439Z" fill="white"/>
<path d="M1389.65 809.532C1382.23 812.64 1374.06 813.47 1366.17 811.918C1358.28 810.366 1351.03 806.501 1345.34 800.816L1362.85 793.485C1370.26 790.374 1378.44 789.541 1386.34 791.094C1394.23 792.646 1401.48 796.513 1407.17 802.201L1389.65 809.532Z" fill="white"/>
<path d="M1429.2 792.129C1425.97 799.81 1425.11 808.277 1426.72 816.45C1428.33 824.623 1432.33 832.133 1438.22 838.021L1445.82 819.902C1449.05 812.221 1449.91 803.754 1448.3 795.581C1446.69 787.408 1442.69 779.899 1436.79 774.01L1429.2 792.129Z" fill="white"/>
<path d="M1417.95 780.939C1410.26 784.161 1401.8 785.023 1393.62 783.415C1385.45 781.807 1377.94 777.801 1372.05 771.91L1390.17 764.311C1397.85 761.089 1406.32 760.227 1414.49 761.835C1422.67 763.443 1430.18 767.448 1436.06 773.34L1417.95 780.939Z" fill="white"/>
<path d="M1465 740.709V743.227L1448.15 750.349C1440.2 753.678 1431.44 754.567 1422.99 752.903C1414.54 751.239 1406.77 747.098 1400.68 741.007L1419.44 733.155C1426.97 729.99 1435.25 729.021 1443.31 730.357C1451.37 731.694 1458.89 735.283 1465 740.709Z" fill="white"/>
<path d="M1450.5 700.181C1455.11 698.247 1460.01 697.103 1465 696.799V721.339C1458.76 721.639 1452.52 720.631 1446.69 718.381C1440.85 716.131 1435.56 712.687 1431.13 708.272L1450.5 700.181Z" fill="white"/>
<path d="M1435.8 773.027L1465 743.823V746.326L1436.42 774.979L1408.11 803.289L1407.46 803.944L1381.68 829.721L1357.42 853.949L1346.11 865.258C1346.03 865.34 1345.93 865.405 1345.83 865.45C1345.72 865.494 1345.6 865.517 1345.49 865.517C1345.37 865.517 1345.26 865.494 1345.15 865.45C1345.04 865.405 1344.94 865.34 1344.86 865.258C1344.78 865.176 1344.71 865.078 1344.67 864.971C1344.62 864.863 1344.6 864.748 1344.6 864.632C1344.6 864.516 1344.62 864.401 1344.67 864.293C1344.71 864.186 1344.78 864.089 1344.86 864.006L1356.19 852.682L1379.83 829.036L1380.46 828.41L1435.17 773.697L1435.8 773.027Z" fill="white"/>
<path d="M1327.31 865.586C1339.23 853.666 1357.57 852.519 1357.57 852.519C1357.57 852.519 1356.45 870.801 1344.49 882.766C1332.52 894.73 1314.24 895.833 1314.24 895.833C1314.24 895.833 1315.36 877.551 1327.31 865.586Z" fill="white"/>
<path d="M1001.88 1218.73C998.877 1225.89 998.074 1233.77 999.571 1241.38C1001.07 1249 1004.8 1255.99 1010.28 1261.48L1017.37 1244.6C1020.37 1237.44 1021.17 1229.55 1019.67 1221.94C1018.17 1214.33 1014.44 1207.33 1008.96 1201.85L1001.88 1218.73Z" fill="white"/>
<path d="M991.344 1208.2C984.189 1211.2 976.303 1212 968.69 1210.5C961.077 1209.01 954.082 1205.28 948.596 1199.79L965.477 1192.72C972.632 1189.71 980.518 1188.91 988.131 1190.41C995.744 1191.9 1002.74 1195.63 1008.23 1201.12L991.344 1208.2Z" fill="white"/>
<path d="M1028.04 1192.94C1024.93 1200.36 1024.1 1208.53 1025.65 1216.42C1027.2 1224.31 1031.07 1231.57 1036.76 1237.25L1044.09 1219.74C1047.21 1212.33 1048.05 1204.16 1046.5 1196.27C1044.96 1188.38 1041.1 1181.12 1035.42 1175.43L1028.04 1192.94Z" fill="white"/>
<path d="M1017.15 1182.03C1009.73 1185.14 1001.56 1185.97 993.668 1184.42C985.777 1182.87 978.526 1179 972.838 1173.32L990.345 1165.98C997.765 1162.87 1005.94 1162.04 1013.84 1163.59C1021.73 1165.15 1028.98 1169.01 1034.67 1174.7L1017.15 1182.03Z" fill="white"/>
<path d="M1056.7 1164.63C1053.47 1172.31 1052.61 1180.78 1054.22 1188.95C1055.83 1197.12 1059.83 1204.63 1065.72 1210.52L1073.32 1192.4C1076.55 1184.72 1077.41 1176.25 1075.8 1168.08C1074.19 1159.91 1070.19 1152.4 1064.29 1146.51L1056.7 1164.63Z" fill="white"/>
<path d="M1045.45 1153.44C1037.76 1156.66 1029.3 1157.52 1021.12 1155.91C1012.95 1154.31 1005.44 1150.3 999.554 1144.41L1017.67 1136.81C1025.35 1133.59 1033.82 1132.73 1041.99 1134.33C1050.17 1135.94 1057.68 1139.95 1063.56 1145.84L1045.45 1153.44Z" fill="white"/>
<path d="M1087.23 1134.46C1083.89 1142.4 1082.99 1151.15 1084.64 1159.6C1086.3 1168.06 1090.43 1175.83 1096.51 1181.93L1104.36 1163.18C1107.69 1155.24 1108.59 1146.48 1106.93 1138.03C1105.27 1129.57 1101.13 1121.8 1095.03 1115.71L1087.23 1134.46Z" fill="white"/>
<path d="M1075.65 1122.85C1067.7 1126.18 1058.95 1127.07 1050.49 1125.41C1042.04 1123.75 1034.27 1119.61 1028.18 1113.52L1046.94 1105.65C1054.88 1102.32 1063.63 1101.43 1072.08 1103.09C1080.54 1104.75 1088.3 1108.89 1094.39 1114.98L1075.65 1122.85Z" fill="white"/>
<path d="M1119.63 1102.42C1116.19 1110.63 1115.28 1119.67 1116.99 1128.4C1118.71 1137.13 1122.98 1145.15 1129.27 1151.44L1137.39 1132.07C1140.84 1123.87 1141.77 1114.83 1140.06 1106.1C1138.35 1097.37 1134.08 1089.35 1127.8 1083.05L1119.63 1102.42Z" fill="white"/>
<path d="M1107.67 1090.44C1099.46 1093.88 1090.42 1094.8 1081.68 1093.09C1072.95 1091.37 1064.93 1087.09 1058.63 1080.8L1078 1072.68C1086.21 1069.24 1095.25 1068.31 1103.98 1070.03C1112.71 1071.75 1120.73 1076.03 1127.02 1082.32L1107.67 1090.44Z" fill="white"/>
<path d="M1150.79 1071.62C1147.23 1080.1 1146.28 1089.45 1148.05 1098.47C1149.82 1107.49 1154.24 1115.78 1160.74 1122.28L1169.13 1102.29C1172.69 1093.81 1173.64 1084.46 1171.87 1075.44C1170.1 1066.42 1165.68 1058.13 1159.18 1051.63L1150.79 1071.62Z" fill="white"/>
<path d="M1138.47 1059.29C1129.99 1062.85 1120.64 1063.8 1111.62 1062.03C1102.6 1060.26 1094.31 1055.84 1087.81 1049.33L1107.8 1040.94C1116.28 1037.38 1125.63 1036.43 1134.65 1038.2C1143.67 1039.98 1151.96 1044.39 1158.46 1050.9L1138.47 1059.29Z" fill="white"/>
<path d="M1184.42 1038.32C1180.76 1047.05 1179.78 1056.67 1181.61 1065.96C1183.44 1075.25 1187.99 1083.78 1194.68 1090.47L1203.33 1069.86C1206.98 1061.14 1207.96 1051.51 1206.13 1042.23C1204.31 1032.94 1199.75 1024.41 1193.06 1017.71L1184.42 1038.32Z" fill="white"/>
<path d="M1171.75 1025.63C1163.02 1029.29 1153.4 1030.26 1144.11 1028.43C1134.83 1026.61 1126.29 1022.06 1119.6 1015.36L1140.21 1006.72C1148.94 1003.06 1158.56 1002.08 1167.85 1003.91C1177.14 1005.74 1185.67 1010.29 1192.36 1016.98L1171.75 1025.63Z" fill="white"/>
<path d="M1217.48 1005.65C1213.71 1014.64 1212.71 1024.56 1214.59 1034.13C1216.47 1043.7 1221.15 1052.49 1228.05 1059.39L1236.99 1038.17C1240.75 1029.18 1241.76 1019.26 1239.88 1009.69C1238 1000.12 1233.31 991.329 1226.42 984.428L1217.48 1005.65Z" fill="white"/>
<path d="M1204.43 992.593C1195.44 996.369 1185.53 997.386 1175.96 995.515C1166.39 993.645 1157.59 988.971 1150.68 982.089L1171.92 973.149C1180.91 969.383 1190.83 968.378 1200.4 970.261C1209.97 972.145 1218.76 976.833 1225.66 983.728L1204.43 992.593Z" fill="white"/>
<path d="M1243.51 966.563C1243.68 966.73 1243.77 966.955 1243.77 967.189C1243.77 967.423 1243.68 967.648 1243.51 967.815L973.613 1237.71C973.531 1237.8 973.433 1237.86 973.326 1237.91C973.218 1237.95 973.103 1237.97 972.987 1237.97C972.871 1237.97 972.756 1237.95 972.648 1237.91C972.541 1237.86 972.443 1237.8 972.361 1237.71C972.279 1237.63 972.214 1237.53 972.169 1237.43C972.125 1237.32 972.102 1237.2 972.102 1237.09C972.102 1236.97 972.125 1236.86 972.169 1236.75C972.214 1236.64 972.279 1236.54 972.361 1236.46L1242.26 966.563C1242.43 966.399 1242.65 966.308 1242.89 966.308C1243.12 966.308 1243.34 966.399 1243.51 966.563Z" fill="white"/>
<path d="M954.809 1238.09C966.729 1226.17 985.071 1225.02 985.071 1225.02C985.071 1225.02 983.954 1243.3 971.989 1255.27C960.024 1267.23 941.742 1268.33 941.742 1268.33C941.742 1268.33 942.859 1250.05 954.809 1238.09Z" fill="white"/>
<path d="M724.336 1490.07H721.818L722.22 1489.11L722.593 1488.21L722.846 1488.48C723.367 1489 723.859 1489.54 724.336 1490.07Z" fill="white"/>
<path d="M721.863 1487.48L720.969 1487.85L715.679 1490.07H660.34C658.684 1488.83 657.115 1487.47 655.647 1486.01L674.406 1478.15C682.29 1474.85 690.976 1473.94 699.372 1475.56C707.768 1477.17 715.5 1481.23 721.594 1487.23L721.863 1487.48Z" fill="white"/>
<path d="M768.276 1490.07H743.706C743.953 1484.86 745.113 1479.72 747.133 1474.91L754.881 1456.45L755.253 1455.55L755.507 1455.82C759.929 1460.31 763.353 1465.68 765.553 1471.58C767.754 1477.49 768.682 1483.79 768.276 1490.07Z" fill="white"/>
<path d="M735.168 1462.94C726.961 1466.38 717.915 1467.3 709.183 1465.59C700.45 1463.87 692.426 1459.59 686.132 1453.3L705.502 1445.18C713.707 1441.74 722.751 1440.81 731.482 1442.53C740.213 1444.25 748.234 1448.53 754.523 1454.82L735.168 1462.94Z" fill="white"/>
<path d="M796.631 1474.73L790.194 1490.07H784.234C779.29 1483.61 776.136 1475.96 775.089 1467.89C774.043 1459.82 775.141 1451.62 778.274 1444.11L786.29 1425.02L786.663 1424.13L786.916 1424.4C793.315 1430.89 797.65 1439.14 799.379 1448.09C801.107 1457.05 800.151 1466.31 796.631 1474.73Z" fill="white"/>
<path d="M765.966 1431.79C757.489 1435.35 748.142 1436.3 739.119 1434.53C730.097 1432.76 721.806 1428.34 715.306 1421.83L735.302 1413.44C743.78 1409.88 753.126 1408.93 762.148 1410.7C771.171 1412.48 779.461 1416.89 785.962 1423.4L765.966 1431.79Z" fill="white"/>
<path d="M811.918 1410.82C808.26 1419.55 807.282 1429.17 809.111 1438.46C810.939 1447.75 815.49 1456.28 822.184 1462.97L830.826 1442.36C834.485 1433.64 835.462 1424.01 833.634 1414.73C831.806 1405.44 827.254 1396.91 820.56 1390.21L811.918 1410.82Z" fill="white"/>
<path d="M799.253 1398.13C790.523 1401.78 780.902 1402.76 771.615 1400.93C762.328 1399.11 753.795 1394.55 747.103 1387.86L767.71 1379.22C776.44 1375.56 786.061 1374.58 795.348 1376.41C804.635 1378.24 813.168 1382.79 819.86 1389.48L799.253 1398.13Z" fill="white"/>
<path d="M844.981 1378.15C841.213 1387.14 840.206 1397.05 842.087 1406.63C843.968 1416.2 848.653 1424.99 855.545 1431.89L864.485 1410.67C868.253 1401.68 869.261 1391.76 867.379 1382.19C865.498 1372.62 860.814 1363.83 853.921 1356.93L844.981 1378.15Z" fill="white"/>
<path d="M831.929 1365.09C822.933 1368.86 813.02 1369.87 803.45 1367.99C793.879 1366.11 785.085 1361.42 778.185 1354.53L799.417 1345.59C808.414 1341.82 818.329 1340.82 827.899 1342.7C837.469 1344.59 846.263 1349.27 853.161 1356.17L831.929 1365.09Z" fill="white"/>
<path d="M871.011 1340.31L854.145 1357.18L853.489 1357.84L820.858 1390.48L786.32 1425.02L755.521 1455.82L754.896 1456.45L722.235 1489.11L721.266 1490.07H718.763L720.983 1487.85L721.609 1487.23L818.981 1389.86L819.606 1389.23L852.252 1356.59L869.775 1339.06C869.941 1338.9 870.166 1338.8 870.4 1338.8C870.635 1338.8 870.86 1338.9 871.026 1339.06C871.192 1339.23 871.285 1339.45 871.285 1339.69C871.285 1339.92 871.192 1340.15 871.026 1340.31H871.011Z" fill="white"/>
<path d="M345.831 0.074585L345.533 0.804693L345.16 1.68379L344.907 1.4156C344.475 0.983499 344.043 0.536485 343.641 0.074585H345.831Z" fill="white"/>
<path d="M412.106 3.87409L393.362 11.7413C385.475 15.0471 376.788 15.9495 368.39 14.3351C359.992 12.7208 352.258 8.66161 346.159 2.66719L345.891 2.4139L346.77 2.0414L351.463 0.074585H407.755C409.288 1.24361 410.741 2.5129 412.106 3.87409Z" fill="white"/>
<path d="M324.033 0.074585C323.762 5.2007 322.607 10.2415 320.62 14.9746L312.873 33.4506L312.5 34.3446L312.247 34.0764C307.855 29.6194 304.447 24.2898 302.245 18.4327C300.043 12.5755 299.095 6.32125 299.463 0.074585H324.033Z" fill="white"/>
<path d="M332.6 26.9989C340.808 23.5595 349.853 22.6396 358.585 24.3563C367.317 26.073 375.341 30.3487 381.636 36.6392L362.266 44.7597C354.059 48.2052 345.012 49.1283 336.279 47.4113C327.546 45.6944 319.522 41.4152 313.23 35.1194L332.6 26.9989Z" fill="white"/>
<path d="M289.465 45.7728L281.076 65.7388C274.574 59.2371 270.157 50.9461 268.387 41.9233C266.617 32.9005 267.574 23.555 271.138 15.0788L277.455 0H283.773C288.65 6.46169 291.742 14.0916 292.741 22.1251C293.74 30.1586 292.61 38.3136 289.465 45.7728Z" fill="white"/>
<path d="M301.802 58.1101C310.277 54.5365 319.627 53.5747 328.652 55.3479C337.678 57.1212 345.968 61.5487 352.462 68.0633L332.481 76.452C324.002 80.0096 314.657 80.9628 305.635 79.1902C296.613 77.4177 288.323 72.9996 281.821 66.4988L301.802 58.1101Z" fill="white"/>
<path d="M255.805 79.1488C259.466 70.4204 260.445 60.8001 258.62 51.513C256.794 42.2259 252.246 33.6922 245.554 26.9988L236.912 47.6055C233.252 56.3339 232.272 65.9542 234.097 75.2413C235.923 84.5284 240.471 93.062 247.163 99.7555L255.805 79.1488Z" fill="white"/>
<path d="M268.5 91.7692C277.23 88.1107 286.851 87.1334 296.138 88.9616C305.426 90.7898 313.958 95.3409 320.65 102.035L300.044 110.677C291.314 114.336 281.693 115.313 272.405 113.485C263.118 111.657 254.585 107.105 247.894 100.411L268.5 91.7692Z" fill="white"/>
<path d="M222.772 111.75C226.54 102.754 227.547 92.8408 225.666 83.2707C223.785 73.7007 219.1 64.9062 212.208 58.0057L203.268 79.2233C199.5 88.2193 198.492 98.1326 200.373 107.703C202.255 117.273 206.939 126.067 213.832 132.968L222.772 111.75Z" fill="white"/>
<path d="M235.839 124.802C244.835 121.034 254.749 120.027 264.319 121.908C273.889 123.789 282.683 128.474 289.584 135.367L268.351 144.307C259.354 148.073 249.44 149.078 239.87 147.194C230.299 145.31 221.506 140.623 214.607 133.728L235.839 124.802Z" fill="white"/>
<path d="M346.264 0.074585H348.737L346.785 2.0414L346.174 2.66719L282.715 66.1263L282.089 66.7521L248.788 100.009L248.162 100.635L215.501 133.295L198.038 150.833C197.871 150.997 197.647 151.088 197.413 151.088C197.179 151.088 196.954 150.997 196.787 150.833C196.623 150.666 196.531 150.441 196.531 150.207C196.531 149.973 196.623 149.748 196.787 149.581L213.669 132.699L214.294 132.074L281.493 64.8747L312.292 34.0764L312.917 33.4655L344.952 1.43049L345.578 0.819585L346.264 0.074585Z" fill="white"/>
<path d="M1465 1485.71V1488.23L1460.68 1490.04H1405.34C1403.68 1488.8 1402.11 1487.44 1400.65 1485.98L1419.41 1478.12C1426.95 1474.96 1435.23 1473.99 1443.3 1475.33C1451.37 1476.67 1458.89 1480.27 1465 1485.71Z" fill="white"/>
<path d="M1450.5 1445.18C1455.11 1443.25 1460.01 1442.1 1465 1441.8V1466.34C1458.76 1466.64 1452.52 1465.63 1446.69 1463.38C1440.85 1461.13 1435.56 1457.69 1431.13 1453.27L1450.5 1445.18Z" fill="white"/>
</g>
</svg>
