<svg width="159" height="34" viewBox="0 0 159 34" fill="none" xmlns="http://www.w3.org/2000/svg">
<g clip-path="url(#clip0_7355_58499)">
<path d="M30.2408 33.6238V33.6855H30.2983C30.3091 33.6857 30.3198 33.6829 30.3292 33.6776C30.3329 33.675 30.3359 33.6714 30.338 33.6673C30.34 33.6632 30.3409 33.6586 30.3407 33.654C30.3409 33.6495 30.34 33.645 30.3379 33.641C30.3359 33.637 30.3329 33.6336 30.3292 33.631C30.3199 33.6255 30.3092 33.6227 30.2983 33.6232H30.2408V33.6238ZM30.2989 33.5801C30.3236 33.5786 30.348 33.5857 30.368 33.6002C30.3761 33.6068 30.3824 33.6151 30.3866 33.6246C30.3909 33.6341 30.3928 33.6444 30.3923 33.6548C30.3926 33.6637 30.3911 33.6726 30.3877 33.6809C30.3844 33.6892 30.3793 33.6966 30.3728 33.7028C30.3574 33.7162 30.338 33.7242 30.3176 33.7257L30.3947 33.8137H30.3353L30.2644 33.7264H30.2414V33.8137H30.1917V33.5803H30.2997L30.2989 33.5801ZM30.2835 33.8942C30.3096 33.8944 30.3354 33.8892 30.3592 33.8787C30.3823 33.8688 30.4032 33.8547 30.4209 33.8369C30.4387 33.8193 30.4529 33.7983 30.4627 33.7753C30.483 33.7264 30.483 33.6714 30.4627 33.6226C30.4528 33.5996 30.4386 33.5786 30.4209 33.5609C30.4032 33.5432 30.3823 33.529 30.3592 33.5191C30.3352 33.5092 30.3095 33.5043 30.2835 33.5046C30.2571 33.5043 30.2309 33.5092 30.2064 33.5191C30.1829 33.5288 30.1614 33.543 30.1433 33.5609C30.116 33.5888 30.0976 33.6242 30.0903 33.6626C30.0829 33.701 30.0871 33.7407 30.1021 33.7768C30.1115 33.7999 30.1255 33.8209 30.1433 33.8385C30.1614 33.8564 30.1829 33.8706 30.2064 33.8803C30.2308 33.8907 30.257 33.896 30.2835 33.8957M30.2835 33.4484C30.3513 33.4483 30.4164 33.4749 30.4648 33.5225C30.4881 33.5453 30.5066 33.5725 30.5194 33.6025C30.5325 33.6333 30.5393 33.6665 30.5393 33.7001C30.5393 33.7336 30.5325 33.7668 30.5194 33.7976C30.5063 33.8275 30.4878 33.8546 30.4648 33.8777C30.4411 33.9004 30.4136 33.9186 30.3835 33.9317C30.3519 33.9451 30.3179 33.9519 30.2835 33.9517C30.2488 33.952 30.2144 33.9451 30.1823 33.9317C30.1519 33.9189 30.1241 33.9006 30.1004 33.8777C30.0774 33.8538 30.0591 33.8257 30.0466 33.795C30.0334 33.7642 30.0266 33.731 30.0266 33.6974C30.0266 33.6639 30.0334 33.6307 30.0466 33.5999C30.0593 33.5698 30.0779 33.5426 30.1012 33.5198C30.1246 33.4965 30.1524 33.4781 30.1831 33.4658C30.2151 33.4524 30.2495 33.4455 30.2843 33.4458M6.66604 32.5472C6.66604 32.1022 6.95755 31.7366 7.43401 31.7366C7.88933 31.7366 8.19658 32.0865 8.19658 32.5472C8.19658 33.0079 7.88933 33.3577 7.43401 33.3577C6.95755 33.3577 6.66604 32.9922 6.66604 32.5472ZM8.7156 32.5472V31.2809H8.16511V31.5893C7.99051 31.3614 7.72568 31.2184 7.36552 31.2184C6.65601 31.2184 6.0992 31.7749 6.0992 32.5478C6.0992 33.3207 6.6557 33.8772 7.36552 33.8772C7.72552 33.8772 7.99051 33.7341 8.16511 33.5063V33.8137H8.71498V32.5472H8.7156ZM27.3159 32.5472C27.3159 32.1022 27.6074 31.7366 28.084 31.7366C28.5398 31.7366 28.8466 32.0865 28.8466 32.5472C28.8466 33.0079 28.5398 33.3577 28.084 33.3577C27.6076 33.3577 27.3159 32.9922 27.3159 32.5472ZM29.3661 32.5472V30.2644H28.8151V31.5893C28.6405 31.3614 28.3757 31.2184 28.0155 31.2184C27.306 31.2184 26.7492 31.7749 26.7492 32.5478C26.7492 33.3207 27.3057 33.8772 28.0155 33.8772C28.3757 33.8772 28.6405 33.7341 28.8151 33.5063V33.8137H29.3661V32.5472ZM15.5479 31.7106C15.9026 31.7106 16.1305 31.933 16.1886 32.3246H14.8751C14.9339 31.9591 15.1558 31.7106 15.548 31.7106M15.559 31.217C14.8171 31.217 14.2981 31.7568 14.2981 32.5464C14.2981 33.3514 14.8379 33.8758 15.5959 33.8758C15.9771 33.8758 16.3263 33.7807 16.6336 33.5211L16.3638 33.1131C16.1516 33.2828 15.8814 33.3779 15.6273 33.3779C15.2726 33.3779 14.9496 33.2137 14.8701 32.7579H16.7499C16.7553 32.6894 16.7608 32.6203 16.7608 32.5463C16.7553 31.757 16.2673 31.2168 15.5587 31.2168M22.205 32.5463C22.205 32.1013 22.4965 31.7357 22.9729 31.7357C23.4282 31.7357 23.7355 32.0855 23.7355 32.5463C23.7355 33.007 23.4282 33.3568 22.9729 33.3568C22.4965 33.3568 22.2048 32.9912 22.2048 32.5463M24.2544 32.5463V31.2809H23.7042V31.5893C23.529 31.3614 23.2647 31.2184 22.9046 31.2184C22.1951 31.2184 21.6383 31.7749 21.6383 32.5478C21.6383 33.3207 22.1948 33.8772 22.9046 33.8772C23.2647 33.8772 23.529 33.7341 23.7042 33.5063V33.8137H24.2545V32.5472L24.2544 32.5463ZM19.0962 32.5463C19.0962 33.3142 19.6308 33.8757 20.4468 33.8757C20.828 33.8757 21.0821 33.7908 21.3568 33.5738L21.0924 33.1288C20.8857 33.2774 20.6687 33.3568 20.4292 33.3568C19.9897 33.3514 19.6666 33.0337 19.6666 32.5463C19.6666 32.0589 19.9897 31.7413 20.4292 31.7357C20.6681 31.7357 20.8851 31.8152 21.0924 31.9637L21.3568 31.5187C21.0816 31.3017 20.8276 31.2168 20.4468 31.2168C19.6308 31.2168 19.0962 31.7781 19.0962 32.5463ZM26.1929 31.2168C25.8753 31.2168 25.6685 31.3654 25.5255 31.5878V31.2809H24.9799V33.8123H25.531V32.3932C25.531 31.9743 25.711 31.7416 26.0709 31.7416C26.1887 31.7399 26.3057 31.7615 26.4151 31.8053L26.5848 31.2864C26.463 31.2384 26.3041 31.2173 26.1926 31.2173M11.4372 31.4821C11.1724 31.3075 10.8074 31.2173 10.4049 31.2173C9.76352 31.2173 9.35061 31.5247 9.35061 32.0277C9.35061 32.4404 9.65802 32.6951 10.2241 32.7745L10.4841 32.8116C10.786 32.854 10.9285 32.9334 10.9285 33.0764C10.9285 33.2721 10.728 33.3838 10.3515 33.3838C9.9702 33.3838 9.69503 33.2619 9.50948 33.119L9.25082 33.5482C9.55267 33.7706 9.93395 33.8767 10.3469 33.8767C11.078 33.8767 11.5017 33.5325 11.5017 33.0505C11.5017 32.6055 11.1682 32.3727 10.6172 32.2933L10.3578 32.2557C10.1195 32.2248 9.92856 32.1768 9.92856 32.0072C9.92856 31.8221 10.1086 31.7107 10.4106 31.7107C10.7337 31.7107 11.0465 31.8326 11.1998 31.9277L11.4381 31.4828L11.4372 31.4821ZM18.5402 31.2178C18.2226 31.2178 18.0158 31.3663 17.8734 31.5887V31.2809H17.3278V33.8123H17.8783V32.3932C17.8783 31.9743 18.0583 31.7416 18.4182 31.7416C18.536 31.7399 18.653 31.7615 18.7624 31.8053L18.9321 31.2864C18.8103 31.2384 18.6514 31.2173 18.5399 31.2173M13.8426 31.2809H12.9424V30.5129H12.3859V31.2809H11.8725V31.784H12.3859V32.9388C12.3859 33.5262 12.6139 33.876 13.2651 33.876C13.504 33.876 13.7792 33.8019 13.9538 33.6802L13.7948 33.2089C13.6305 33.304 13.4505 33.352 13.3074 33.352C13.0322 33.352 12.9424 33.1823 12.9424 32.9283V31.7845H13.8426V31.2809ZM5.61241 33.8129V32.2242C5.61241 31.6259 5.23113 31.2233 4.61647 31.2179C4.29334 31.2125 3.96002 31.3131 3.72665 31.6683C3.55205 31.3876 3.27689 31.2179 2.89005 31.2179C2.61966 31.2179 2.35545 31.2974 2.14861 31.5938V31.2809H1.59766V33.8123H2.15293V32.4087C2.15293 31.9692 2.39663 31.7357 2.77298 31.7357C3.13853 31.7357 3.32347 31.974 3.32347 32.4031V33.812H3.87997V32.4084C3.87997 31.9689 4.13401 31.7354 4.4994 31.7354C4.87529 31.7354 5.05467 31.9737 5.05467 32.4028V33.8117L5.61241 33.8129Z" fill="#231F20"/>
<path d="M30.5534 25.3922V25.022H30.457L30.3455 25.276L30.2346 25.022H30.1379V25.3922H30.2064V25.1133L30.3107 25.3539H30.3816L30.4859 25.1127V25.3922H30.5538H30.5534ZM29.9419 25.3922V25.0854H30.0653V25.0229H29.75V25.0854H29.8734V25.3922H29.9413H29.9419Z" fill="#F79410"/>
<path d="M19.5962 26.9798H11.2539V11.9875H19.5964L19.5962 26.9798Z" fill="#FF5F00"/>
<path d="M11.7841 19.4839C11.7841 16.4427 13.208 13.7336 15.4254 11.9877C13.747 10.6642 11.671 9.94595 9.53352 9.94911C4.26818 9.94911 0 14.2179 0 19.4839C0 24.7498 4.26818 29.0186 9.53352 29.0186C11.671 29.0218 13.7471 28.3035 15.4256 26.98C13.2083 25.2345 11.7841 22.5252 11.7841 19.4839Z" fill="#EB001B"/>
<path d="M30.8521 19.484C30.8521 24.7499 26.5839 29.0187 21.3186 29.0187C19.1808 29.0219 17.1046 28.3036 15.4258 26.9801C17.6438 25.2343 19.0677 22.5253 19.0677 19.484C19.0677 16.4426 17.6438 13.7337 15.4258 11.9878C17.1045 10.6644 19.1807 9.94613 21.3184 9.94923C26.5838 9.94923 30.852 14.218 30.852 19.484" fill="#F79E1B"/>
</g>
<g clip-path="url(#clip1_7355_58499)">
<mask id="mask0_7355_58499" style="mask-type:luminance" maskUnits="userSpaceOnUse" x="46" y="14" width="40" height="13">
<path d="M57.496 14.4336L54.2162 22.7252L52.8888 15.6763C52.8348 15.3301 52.6586 15.0146 52.3921 14.787C52.1257 14.5593 51.7866 14.4345 51.4362 14.4351H46.074L46 14.7884C47.0993 15.027 48.3511 15.4136 49.1077 15.8243C49.5728 16.0765 49.7117 16.297 49.8627 16.895L52.3754 26.6166H55.7066L60.8121 14.4351L57.496 14.4336ZM62.159 14.4336L59.5527 26.6151H62.7041L65.309 14.4336H62.159ZM80.2267 17.7255L81.1826 22.2994H78.5687L80.2267 17.7255ZM79.7737 14.4336C79.4861 14.4308 79.2044 14.5146 78.965 14.674C78.7256 14.8334 78.5397 15.0611 78.4313 15.3275L73.7033 26.6151H77.0119L77.6687 24.7955H81.7111L82.0917 26.6151H85.006L82.4631 14.4336H79.7737ZM66.1682 18.2434C66.1471 19.9981 67.7326 20.9751 68.9271 21.5655C70.1547 22.162 70.567 22.5455 70.5624 23.0756C70.5519 23.894 69.5824 24.2534 68.6749 24.2685C67.0908 24.2927 66.1712 23.8397 65.4388 23.4984L64.868 26.1682C65.6034 26.5064 66.964 26.8009 68.3729 26.816C71.6829 26.816 73.8483 25.1806 73.8589 22.6467C73.8725 19.4318 69.4133 19.2552 69.4435 17.8146C69.4541 17.3782 69.8693 16.9085 70.7799 16.7953C71.8457 16.6931 72.9193 16.8804 73.8876 17.3374L74.4418 14.7537C73.4986 14.4 72.5 14.2169 71.4926 14.2131C68.3789 14.2131 66.1863 15.8742 66.1682 18.2404" fill="white"/>
</mask>
<g mask="url(#mask0_7355_58499)">
<path d="M85 14.2099H46V26.8052H85V14.2099Z" fill="url(#paint0_linear_7355_58499)"/>
</g>
</g>
<g clip-path="url(#clip2_7355_58499)">
<path d="M101.495 26.9573C101.149 26.9573 100.859 26.9506 100.569 26.9573C100.189 26.9681 100.01 27.1434 100.006 27.5171C99.9974 28.1362 99.9988 28.7539 100.006 29.3717C100.006 29.7615 100.197 29.9368 100.592 29.9476C100.66 29.9476 100.727 29.9476 100.795 29.9476H129.149C129.831 29.9476 129.949 29.8302 129.949 29.1451C129.949 28.6163 129.949 28.0876 129.949 27.5602C129.949 27.1381 129.776 26.9641 129.361 26.9546C129.071 26.9546 128.782 26.9546 128.458 26.9546V25.7407C128.458 25.0811 128.338 24.9611 127.675 24.9517C127.618 24.9517 127.563 24.9517 127.455 24.9422V24.6199C127.455 22.2042 127.455 19.7885 127.462 17.3714C127.465 17.2097 127.519 17.0529 127.614 16.9223C127.866 16.5997 127.985 16.1928 127.946 15.7852C127.926 15.5276 128.023 15.4602 128.271 15.4642C128.81 15.4642 128.945 15.3199 128.945 14.7898C128.945 14.3663 128.945 13.9428 128.945 13.4882H129.35C129.608 13.4882 129.818 13.4073 129.915 13.151C130.012 12.8948 129.891 12.7006 129.697 12.5346L126.582 9.8492C122.895 6.67323 119.209 3.49637 115.522 0.318609C115.034 -0.102215 114.912 -0.102216 114.435 0.309167C109.787 4.31509 105.14 8.32146 100.495 12.3283C100.25 12.54 99.8895 12.7167 100.035 13.1376C100.181 13.5584 100.564 13.4748 100.894 13.4896C100.932 13.4975 100.969 13.5079 101.005 13.5206V14.717C101.005 15.3523 101.116 15.4669 101.736 15.4818C101.803 15.4818 101.871 15.4899 101.977 15.498C101.991 15.6044 101.999 15.7116 102 15.819C101.986 16.0329 102.015 16.2475 102.084 16.4503C102.154 16.6532 102.263 16.8402 102.405 17.0005C102.466 17.0774 102.499 17.1723 102.499 17.2703C102.499 19.7997 102.499 22.3283 102.499 24.8559C102.495 24.8864 102.486 24.9162 102.475 24.9449C102.387 24.9449 102.29 24.9611 102.193 24.9624C101.654 24.9624 101.503 25.123 101.5 25.6746C101.493 26.0819 101.495 26.496 101.495 26.9573ZM104.853 12.4645L114.969 3.66362L125.085 12.4645H104.853ZM114.969 1.16565L128.093 12.4807C127.625 12.4807 127.257 12.4969 126.891 12.4726C126.729 12.4643 126.573 12.4064 126.445 12.3067C122.793 9.14423 119.146 5.97546 115.505 2.80039C115.035 2.39575 114.906 2.39575 114.443 2.7923C110.799 5.96287 107.153 9.13299 103.506 12.3027C103.432 12.3852 103.335 12.4436 103.228 12.4699C102.799 12.4888 102.369 12.478 101.847 12.478L114.969 1.16565ZM101.02 27.9716H128.92V28.9239H101.025L101.02 27.9716ZM122.949 15.4885C122.931 15.6323 122.931 15.7777 122.949 15.9215C123.042 16.2492 123.16 16.5702 123.271 16.894C123.329 17.0653 123.444 17.2339 123.444 17.4038C123.456 19.7966 123.452 22.1893 123.452 24.5821V24.9355H120.463V24.5511C120.463 22.1812 120.463 19.8114 120.472 17.4416C120.472 17.25 120.598 17.0599 120.662 16.867C120.766 16.5541 120.879 16.2425 120.964 15.9228C120.982 15.7786 120.982 15.6327 120.964 15.4885H122.949ZM106.484 24.9476V24.516C106.484 22.1691 106.484 19.8213 106.484 17.4726C106.489 17.2545 106.554 17.042 106.673 16.8589C106.836 16.5675 106.903 16.2182 106.991 15.8891C107.007 15.7592 107.007 15.6278 106.991 15.498H108.975C108.956 15.6498 108.956 15.8034 108.975 15.9552C109.065 16.2722 109.187 16.581 109.296 16.8993C109.355 17.0693 109.467 17.2406 109.469 17.4119C109.479 19.8033 109.477 22.1961 109.477 24.5888V24.953L106.484 24.9476ZM116.465 24.9382H113.498C113.498 24.868 113.483 24.8141 113.483 24.7601C113.483 22.2676 113.483 19.7741 113.483 17.2797C113.488 17.1607 113.531 17.0466 113.605 16.9533C113.854 16.6579 113.983 16.2802 113.967 15.8945C113.967 15.7596 113.967 15.6355 113.967 15.502H115.834C115.994 15.9997 116.133 16.4381 116.275 16.8737C116.334 17.0572 116.449 17.2379 116.45 17.42C116.462 19.802 116.458 22.1826 116.458 24.5686L116.465 24.9382ZM127.93 14.458H102.033V13.5139H127.93V14.458ZM127.437 26.9303H102.524V25.9862H127.435L127.437 26.9303ZM119.444 17.4888V24.9287H117.495V17.4888H119.444ZM110.511 24.9409V17.5009H112.464V24.9409H110.511ZM124.494 24.9409V17.4955H126.423V24.9449L124.494 24.9409ZM103.533 24.9409V17.4955H105.461V24.9463L103.533 24.9409ZM123.957 15.4993H126.937C126.945 15.5937 126.954 15.6598 126.956 15.7259C126.967 16.3045 126.81 16.4623 126.222 16.4637C125.672 16.4637 125.121 16.4637 124.571 16.4637C124.144 16.4637 123.966 16.2735 123.957 15.8419C123.953 15.7353 123.955 15.6247 123.955 15.5033L123.957 15.4993ZM105.974 15.4872C106.058 16.3113 105.92 16.4637 105.132 16.4637H103.717C103.086 16.4637 102.854 16.1197 103.066 15.4885L105.974 15.4872ZM119.953 15.4872C119.96 15.5775 119.966 15.6328 119.966 15.6881C119.98 16.3167 119.831 16.465 119.211 16.4664C118.717 16.4664 118.222 16.4381 117.727 16.4664C117.139 16.5082 116.837 16.2128 117.039 15.4804L119.953 15.4872ZM112.959 15.4872C112.959 15.6045 112.974 15.6827 112.974 15.7569C112.974 16.2964 112.826 16.4569 112.28 16.4569C111.708 16.4569 111.136 16.4569 110.564 16.4569C110.204 16.4569 110.01 16.2722 109.992 15.9363C109.984 15.7933 109.992 15.649 109.992 15.4858L112.959 15.4872Z" fill="black"/>
<path d="M115.277 10.332V6.50424H115.522V10.332H115.277ZM115.927 7.7677C115.915 7.64709 115.864 7.55339 115.773 7.4866C115.683 7.41981 115.56 7.38642 115.404 7.38642C115.298 7.38642 115.209 7.40137 115.136 7.43128C115.064 7.46018 115.008 7.50055 114.969 7.55239C114.931 7.60422 114.912 7.66303 114.912 7.72882C114.91 7.78365 114.922 7.8315 114.946 7.87236C114.972 7.91323 115.008 7.94862 115.053 7.97852C115.097 8.00743 115.149 8.03285 115.208 8.05478C115.267 8.07571 115.33 8.09366 115.397 8.10861L115.672 8.1744C115.805 8.2043 115.928 8.24417 116.039 8.29402C116.151 8.34386 116.248 8.40516 116.33 8.47793C116.411 8.55069 116.475 8.63642 116.519 8.7351C116.565 8.83379 116.589 8.94693 116.59 9.07452C116.589 9.26192 116.541 9.4244 116.446 9.56196C116.352 9.69852 116.217 9.80468 116.039 9.88044C115.863 9.9552 115.65 9.99258 115.401 9.99258C115.154 9.99258 114.938 9.9547 114.755 9.87894C114.573 9.80319 114.43 9.69104 114.327 9.54252C114.226 9.393 114.172 9.20809 114.167 8.9878H114.794C114.801 9.09047 114.83 9.17619 114.882 9.24497C114.935 9.31276 115.005 9.36409 115.093 9.39898C115.182 9.43287 115.282 9.44982 115.394 9.44982C115.503 9.44982 115.598 9.43387 115.679 9.40197C115.761 9.37007 115.824 9.32571 115.869 9.2689C115.914 9.21208 115.936 9.14679 115.936 9.07302C115.936 9.00424 115.916 8.94643 115.875 8.89958C115.835 8.85273 115.776 8.81286 115.699 8.77996C115.622 8.74707 115.528 8.71716 115.416 8.69025L115.083 8.60652C114.824 8.54372 114.621 8.44553 114.471 8.31196C114.321 8.17839 114.247 7.99846 114.248 7.77218C114.247 7.58678 114.297 7.4248 114.396 7.28624C114.497 7.14768 114.635 7.03953 114.81 6.96178C114.986 6.88403 115.185 6.84515 115.408 6.84515C115.636 6.84515 115.834 6.88403 116.004 6.96178C116.174 7.03953 116.307 7.14768 116.401 7.28624C116.496 7.4248 116.545 7.58528 116.548 7.7677H115.927Z" fill="#1A1A1A"/>
</g>
<g clip-path="url(#clip3_7355_58499)">
<path d="M145.002 18.0056C145.002 21.2363 145.002 24.4666 145.002 27.6965C145.002 28.7333 145.52 29.5218 146.417 29.8229C146.674 29.9075 146.943 29.9511 147.214 29.9521C150.087 29.9616 152.961 29.9633 155.835 29.9572C156.423 29.9583 156.987 29.726 157.403 29.3114C157.819 28.8968 158.054 28.3339 158.055 27.7464C158.063 25.8133 158.055 23.8802 158.055 21.9471C158.055 17.3857 158.055 12.8243 158.055 8.26285C158.055 7.72973 157.954 7.23526 157.627 6.80591C157.215 6.26363 156.661 5.96044 155.974 5.95841C153.023 5.94823 150.073 5.94823 147.122 5.95841C145.982 5.96349 145.016 6.97582 145.005 8.13873C144.994 9.32503 145.005 10.5124 145.005 11.6997L145.002 18.0056ZM157.121 17.9303C157.121 21.1861 157.121 24.4418 157.121 27.6975C157.126 27.8694 157.096 28.0405 157.033 28.2004C156.969 28.3604 156.875 28.506 156.754 28.6284C156.633 28.7509 156.489 28.8477 156.33 28.9131C156.171 28.9785 156 29.0111 155.828 29.009C152.963 29.009 150.098 29.009 147.232 29.009C146.418 29.009 145.941 28.5226 145.941 27.7057V8.22419C145.935 8.05001 145.964 7.87638 146.028 7.714C146.091 7.55163 146.187 7.40393 146.309 7.28002C146.432 7.15611 146.579 7.05861 146.74 6.99352C146.902 6.92843 147.075 6.89713 147.249 6.90155C147.402 6.91122 147.555 6.91122 147.707 6.90155C147.967 6.86594 148.1 6.95954 148.184 7.2139C148.332 7.65647 148.653 7.92609 149.131 7.92609C150.732 7.93626 152.334 7.93626 153.937 7.92609C154.324 7.92609 154.677 7.74906 154.787 7.38889C154.934 6.91172 155.225 6.83745 155.638 6.8985C155.68 6.90358 155.723 6.90358 155.765 6.8985C156.637 6.8344 157.135 7.49572 157.13 8.26692C157.109 11.4881 157.121 14.7092 157.121 17.9303Z" fill="black"/>
<path d="M148.558 15.8212C148.844 15.8215 149.119 15.7089 149.323 15.5078C149.528 15.3067 149.644 15.0333 149.648 14.7468C149.652 14.5301 149.591 14.3174 149.473 14.1355C149.355 13.9537 149.185 13.8111 148.986 13.7259C148.787 13.6406 148.567 13.6166 148.354 13.6568C148.141 13.697 147.945 13.7997 147.791 13.9518C147.636 14.1039 147.531 14.2984 147.487 14.5107C147.444 14.723 147.465 14.9434 147.547 15.1439C147.629 15.3444 147.769 15.5158 147.949 15.6364C148.129 15.7571 148.341 15.8214 148.558 15.8212Z" fill="black"/>
<path d="M149.648 21.1871C149.642 20.9029 149.526 20.6322 149.324 20.4325C149.121 20.2327 148.849 20.1197 148.565 20.1173C148.281 20.1149 148.007 20.2234 147.801 20.4197C147.596 20.616 147.475 20.8847 147.464 21.1687C147.458 21.3148 147.482 21.4605 147.534 21.5972C147.586 21.7339 147.665 21.8589 147.765 21.9646C147.866 22.0703 147.988 22.1547 148.122 22.2128C148.256 22.2708 148.4 22.3014 148.547 22.3026C148.693 22.3038 148.838 22.2757 148.973 22.2199C149.108 22.1641 149.231 22.0818 149.333 21.9777C149.436 21.8737 149.517 21.7501 149.571 21.6143C149.625 21.4785 149.651 21.3332 149.648 21.1871Z" fill="black"/>
<path d="M150.455 14.7234C150.454 14.8675 150.481 15.0105 150.535 15.144C150.589 15.2775 150.67 15.3989 150.771 15.5011C150.873 15.6033 150.994 15.6842 151.127 15.7392C151.26 15.7942 151.403 15.822 151.547 15.8212C151.834 15.8191 152.108 15.705 152.312 15.5033C152.515 15.3016 152.632 15.0283 152.637 14.7417C152.635 14.4507 152.519 14.172 152.313 13.9657C152.108 13.7594 151.83 13.6421 151.539 13.6389C151.252 13.6415 150.978 13.7567 150.775 13.9595C150.573 14.1624 150.458 14.4367 150.455 14.7234Z" fill="black"/>
<path d="M150.455 21.1982C150.46 21.4853 150.578 21.7589 150.783 21.9599C150.988 22.1609 151.264 22.2732 151.551 22.2726C151.843 22.266 152.12 22.1448 152.323 21.9355C152.526 21.7261 152.639 21.4452 152.637 21.1535C152.629 20.8668 152.51 20.5945 152.304 20.3949C152.098 20.1952 151.823 20.084 151.536 20.0852C151.391 20.0854 151.248 20.1146 151.115 20.171C150.982 20.2274 150.861 20.3099 150.761 20.4137C150.66 20.5174 150.581 20.6403 150.529 20.7751C150.476 20.9098 150.451 21.0537 150.455 21.1982Z" fill="black"/>
<path d="M154.515 15.8212C154.659 15.8224 154.801 15.795 154.935 15.7405C155.068 15.6859 155.189 15.6054 155.291 15.5036C155.393 15.4019 155.474 15.2808 155.528 15.1476C155.583 15.0143 155.61 14.8715 155.609 14.7275C155.609 14.4408 155.495 14.1659 155.293 13.9622C155.091 13.7585 154.818 13.6423 154.531 13.6389C154.24 13.6402 153.961 13.7563 153.754 13.962C153.548 14.1677 153.431 14.4464 153.429 14.7377C153.433 15.0242 153.548 15.298 153.751 15.5005C153.954 15.7029 154.228 15.818 154.515 15.8212Z" fill="black"/>
<path d="M155.609 21.1677C155.609 21.0237 155.58 20.8813 155.523 20.7487C155.467 20.6162 155.385 20.4962 155.282 20.3958C155.179 20.2953 155.056 20.2165 154.922 20.1639C154.788 20.1112 154.645 20.0859 154.501 20.0893C154.215 20.0959 153.942 20.2145 153.742 20.4197C153.542 20.6249 153.43 20.9003 153.43 21.1871C153.436 21.4743 153.554 21.7479 153.758 21.9502C153.962 22.1525 154.236 22.2677 154.524 22.2716C154.668 22.2708 154.81 22.2416 154.942 22.1856C155.075 22.1296 155.195 22.048 155.296 21.9454C155.397 21.8428 155.477 21.7213 155.53 21.5878C155.584 21.4544 155.611 21.3116 155.609 21.1677Z" fill="black"/>
<path d="M155.609 17.9527C155.61 17.8086 155.582 17.6659 155.527 17.5329C155.472 17.3998 155.39 17.2792 155.288 17.1781C155.185 17.077 155.063 16.9975 154.929 16.9443C154.796 16.891 154.652 16.8651 154.508 16.8681C154.222 16.8719 153.948 16.9882 153.746 17.1921C153.545 17.396 153.432 17.671 153.431 17.9578C153.432 18.102 153.461 18.2446 153.517 18.3774C153.573 18.5102 153.655 18.6306 153.758 18.7315C153.861 18.8325 153.983 18.912 154.117 18.9655C154.251 19.0191 154.394 19.0455 154.538 19.0434C154.68 19.0424 154.821 19.0134 154.951 18.9581C155.082 18.9027 155.201 18.822 155.3 18.7207C155.4 18.6193 155.478 18.4993 155.531 18.3675C155.584 18.2357 155.611 18.0947 155.609 17.9527Z" fill="black"/>
<path d="M148.548 16.8681C148.333 16.8706 148.123 16.9371 147.945 17.0592C147.767 17.1813 147.63 17.3534 147.55 17.5538C147.471 17.7541 147.452 17.9736 147.498 18.1844C147.543 18.3952 147.65 18.5878 147.805 18.7376C147.96 18.8875 148.156 18.9879 148.368 19.0261C148.58 19.0643 148.799 19.0385 148.997 18.9521C149.194 18.8657 149.362 18.7225 149.478 18.5408C149.594 18.359 149.653 18.1469 149.648 17.9313C149.64 17.6457 149.52 17.3747 149.314 17.176C149.109 16.9774 148.834 16.8669 148.548 16.8681Z" fill="black"/>
<path d="M151.541 16.8681C151.253 16.8684 150.976 16.9833 150.772 17.1874C150.569 17.3916 150.454 17.6683 150.455 17.9568C150.455 18.2452 150.57 18.5218 150.774 18.7255C150.978 18.9293 151.255 19.0436 151.543 19.0434C151.689 19.0478 151.834 19.023 151.97 18.9704C152.105 18.9177 152.229 18.8384 152.334 18.737C152.438 18.6356 152.521 18.5143 152.578 18.3801C152.635 18.246 152.664 18.1019 152.664 17.9563C152.664 17.8106 152.635 17.6665 152.578 17.5324C152.521 17.3983 152.438 17.2769 152.334 17.1755C152.229 17.0741 152.105 16.9948 151.97 16.9421C151.834 16.8895 151.689 16.8647 151.543 16.8692L151.541 16.8681Z" fill="black"/>
</g>
<defs>
<linearGradient id="paint0_linear_7355_58499" x1="45.9974" y1="20.0815" x2="84.9811" y2="20.0815" gradientUnits="userSpaceOnUse">
<stop stop-color="#241F5D"/>
<stop offset="1" stop-color="#034EA1"/>
</linearGradient>
<clipPath id="clip0_7355_58499">
<rect width="30.8483" height="24" fill="white" transform="translate(0 9.94922)"/>
</clipPath>
<clipPath id="clip1_7355_58499">
<rect width="39" height="12.5953" fill="white" transform="translate(46 14.2099)"/>
</clipPath>
<clipPath id="clip2_7355_58499">
<rect width="29.95" height="29.95" fill="white" transform="matrix(-1 0 0 1 129.949 0)"/>
</clipPath>
<clipPath id="clip3_7355_58499">
<rect width="13.0616" height="24.01" fill="white" transform="matrix(-1 0 0 1 158.062 5.94922)"/>
</clipPath>
</defs>
</svg>
