<svg width="320" height="319" viewBox="0 0 320 319" fill="none" xmlns="http://www.w3.org/2000/svg">
<path d="M160.721 0.0241218C251.557 2.04833 319.941 74.0088 318.997 160.847C318.018 251.936 244.776 319.882 158.157 318.87C69.5473 317.841 -1.21556 245.206 0.0158303 158.705C1.33156 70.4158 74.1186 -1.5109 160.721 0.0241218ZM293.239 159.329C292.783 85.1082 232.665 25.3436 159.102 26.0689C84.6614 26.8617 26.1787 85.513 26.0606 159.515C25.8747 177.184 29.1959 194.715 35.8319 211.092C42.4679 227.469 52.2868 242.366 64.7201 254.923C77.1534 267.479 91.954 277.443 108.265 284.24C124.576 291.037 142.073 294.53 159.744 294.518C177.414 294.505 194.906 290.988 211.208 284.169C227.509 277.349 242.296 267.364 254.712 254.791C267.128 242.217 276.926 227.306 283.539 210.92C290.152 194.533 293.449 176.998 293.239 159.329Z" fill="#F48924"/>
<path d="M136.273 190.255C163.769 162.254 190.252 135.265 216.736 108.309C218.853 106.074 221.106 103.973 223.483 102.017C228.83 97.7999 234.532 97.6649 239.491 102.321C244.45 106.976 245.344 112.442 241.886 118.362C240.385 120.719 238.594 122.878 236.556 124.789C207.25 154.14 177.921 183.463 148.57 212.758C138.449 222.879 133.389 222.879 123.268 212.758C108.98 198.504 94.5917 184.318 80.5066 169.912C74.3496 163.637 73.9954 155.321 79.0896 150.379C84.1839 145.436 92.3144 146.145 98.7075 152.065C100.765 153.955 102.705 155.996 104.662 157.986L136.273 190.255Z" fill="#F48924"/>
</svg>
