<svg width="17" height="17" viewBox="0 0 17 17" fill="none" xmlns="http://www.w3.org/2000/svg">
<path d="M7.73331 10.9239V10.7898C7.73594 10.3298 7.77669 9.96308 7.85555 9.6897C7.93703 9.41632 8.05532 9.19551 8.21041 9.02728C8.36551 8.85905 8.55214 8.70658 8.77032 8.56989C8.9333 8.46475 9.07919 8.35566 9.20799 8.24262C9.33679 8.12959 9.43931 8.00473 9.51554 7.86804C9.59177 7.72872 9.62989 7.57363 9.62989 7.40277C9.62989 7.22139 9.58652 7.06236 9.49977 6.92567C9.41303 6.78898 9.29605 6.68383 9.14885 6.61023C9.00427 6.53663 8.84392 6.49982 8.6678 6.49982C8.49694 6.49982 8.33528 6.53794 8.18281 6.61417C8.03035 6.68777 7.90549 6.79818 7.80823 6.94538C7.71097 7.08996 7.6584 7.27002 7.65051 7.48557H6.04177C6.05492 6.95984 6.18109 6.52611 6.4203 6.18439C6.65951 5.84003 6.97626 5.58374 7.37056 5.4155C7.76486 5.24464 8.1999 5.15921 8.67569 5.15921C9.19879 5.15921 9.66143 5.24596 10.0636 5.41945C10.4658 5.59031 10.7812 5.83872 11.0099 6.16467C11.2386 6.49062 11.353 6.88361 11.353 7.34362C11.353 7.65118 11.3017 7.92456 11.1992 8.16377C11.0993 8.40034 10.9587 8.61064 10.7773 8.79464C10.5959 8.97602 10.3817 9.14031 10.1346 9.28752C9.92693 9.41106 9.75607 9.53987 9.622 9.67393C9.49057 9.80799 9.392 9.96308 9.32628 10.1392C9.26319 10.3153 9.23033 10.5322 9.22771 10.7898V10.9239H7.73331ZM8.51402 13.4474C8.25116 13.4474 8.02641 13.3554 7.83977 13.1714C7.65577 12.9847 7.56508 12.7613 7.56771 12.501C7.56508 12.2434 7.65577 12.0226 7.83977 11.8386C8.02641 11.6546 8.25116 11.5626 8.51402 11.5626C8.76375 11.5626 8.98324 11.6546 9.1725 11.8386C9.36177 12.0226 9.45771 12.2434 9.46034 12.501C9.45771 12.6745 9.41171 12.8336 9.32234 12.9782C9.23559 13.1201 9.12124 13.2344 8.9793 13.3212C8.83735 13.4053 8.68226 13.4474 8.51402 13.4474Z" fill="#1A1A1A"/>
<circle cx="8.5" cy="8.5" r="7.5" stroke="#1A1A1A" stroke-width="2"/>
</svg>
