<svg width="14" height="17" viewBox="0 0 14 17" fill="none" xmlns="http://www.w3.org/2000/svg">
<path d="M2.14263 5.31904V5.12043C2.14263 4.15593 2.14263 3.19143 2.14263 2.22619C2.14263 0.960469 3.08002 0.0120929 4.34794 0.00549677C5.90462 -0.00183226 7.46155 -0.00183226 9.01873 0.00549677C10.2969 0.01136 11.2262 0.95827 11.2284 2.24012C11.2284 3.19778 11.2284 4.15617 11.2284 5.11529V5.33004C11.3362 5.35349 11.4358 5.37328 11.5355 5.39673C12.0465 5.51165 12.504 5.79537 12.834 6.20212C13.164 6.60887 13.3474 7.11493 13.3546 7.63868C13.3702 9.66589 13.3702 11.6936 13.3546 13.7218C13.3443 14.9501 12.3073 15.9806 11.0745 15.9938C9.43209 16.0128 7.78965 16.0004 6.14721 16.0004C4.90128 16.0004 3.65535 16.0062 2.40941 16.0004C1.1862 15.993 0.238553 15.1846 0.0333404 13.982C0.0121935 13.8307 0.00385732 13.678 0.00842141 13.5254C0.00842141 11.633 0.0304084 9.73991 0.000359431 7.84756C-0.0223606 6.41107 1.03595 5.46269 2.06202 5.35569C2.09038 5.34705 2.11748 5.33473 2.14263 5.31904ZM6.69543 6.89258C5.28532 6.89258 3.87522 6.89258 2.46511 6.89258C1.89418 6.89258 1.56877 7.21653 1.56877 7.78966C1.56877 9.70009 1.56877 11.6108 1.56877 13.5217C1.56877 14.108 1.89565 14.4349 2.47391 14.4349H10.8979C11.4754 14.4349 11.8038 14.1051 11.8038 13.5232C11.8038 11.6176 11.8038 9.71206 11.8038 7.80651C11.8038 7.20847 11.4842 6.88965 10.8891 6.88892L6.69543 6.89258ZM9.66075 5.31611C9.66075 4.27685 9.66075 3.25739 9.66075 2.23792C9.66075 1.79818 9.42329 1.56511 8.97695 1.56438C7.45007 1.56438 5.92368 1.56438 4.39778 1.56438C3.94338 1.56438 3.71325 1.79818 3.71251 2.25478C3.71251 3.21928 3.71251 4.18402 3.71251 5.14901C3.71251 5.20178 3.71764 5.25528 3.72131 5.31611H9.66075Z" fill="#4C6538"/>
<path d="M6.02222 11.5288C6.01855 11.4678 6.01855 11.4066 6.02222 11.3456C6.06033 11.0048 5.99217 10.7593 5.66823 10.5284C5.11928 10.137 4.9815 9.38362 5.24388 8.76065C5.51359 8.11936 6.13948 7.75291 6.86213 7.81374C7.49535 7.86724 8.04943 8.36049 8.207 9.01057C8.28349 9.33047 8.25593 9.66643 8.12834 9.9696C8.00075 10.2728 7.77977 10.5273 7.49755 10.6962C7.44685 10.72 7.40491 10.7591 7.37768 10.8081C7.35046 10.857 7.33931 10.9133 7.34584 10.9689C7.35464 11.3405 7.3517 11.7128 7.34584 12.0851C7.34218 12.4809 7.06441 12.7667 6.68623 12.7689C6.30805 12.7711 6.02222 12.4845 6.01709 12.0778C6.02075 11.8945 6.02295 11.7121 6.02222 11.5288Z" fill="#4C6538"/>
</svg>
