<svg width="32" height="31" viewBox="0 0 32 31" fill="none" xmlns="http://www.w3.org/2000/svg">
<path d="M13.1468 2.78115C14.0449 0.01722 17.9551 0.0172195 18.8532 2.78115L20.4903 7.81966C20.8919 9.05573 22.0438 9.89261 23.3434 9.89261H28.6413C31.5474 9.89261 32.7557 13.6115 30.4046 15.3197L26.1186 18.4336C25.0671 19.1976 24.6272 20.5517 25.0288 21.7877L26.6659 26.8262C27.5639 29.5902 24.4005 31.8885 22.0494 30.1803L17.7634 27.0664C16.7119 26.3024 15.2881 26.3024 14.2366 27.0664L9.95064 30.1803C7.59949 31.8885 4.43605 29.5902 5.33411 26.8262L6.97122 21.7877C7.37284 20.5517 6.93287 19.1976 5.8814 18.4336L1.5954 15.3197C-0.755746 13.6115 0.452579 9.89261 3.35875 9.89261H8.65655C9.95623 9.89261 11.1081 9.05573 11.5097 7.81966L13.1468 2.78115Z" fill="#FFCC29"/>
</svg>
