<svg width="16" height="16" viewBox="0 0 16 16" fill="none" xmlns="http://www.w3.org/2000/svg">
<path d="M0.0414093 5.38865C-0.111649 6.69233 0.16207 8.01041 0.82151 9.14532C0.873934 9.22988 0.892937 9.3309 0.874825 9.42873L0.519076 11.1182C0.464357 11.3786 0.549433 11.6486 0.743435 11.8306C0.937564 12.0125 1.21242 12.0801 1.46881 12.0089L3.14761 11.5429C3.2425 11.5192 3.34276 11.5311 3.42949 11.5761C3.8828 11.7951 4.36162 11.9567 4.85497 12.0572C5.17677 13.0413 5.75941 13.9197 6.54091 14.5989C7.32229 15.2781 8.27329 15.7327 9.29264 15.9143C9.61878 15.9709 9.94925 15.9996 10.2804 16C11.0769 16.0009 11.8645 15.8337 12.5919 15.5093C12.6708 15.4736 12.7585 15.4625 12.8437 15.4773L14.5722 15.8621C14.8262 15.9185 15.0915 15.8412 15.2757 15.6573C15.4598 15.4732 15.5372 15.208 15.4811 14.954L15.1543 13.4858C15.1339 13.383 15.1531 13.2762 15.2084 13.187C15.8388 12.1221 16.1038 10.8803 15.9626 9.65077C15.8378 8.56292 15.4044 7.53333 14.7134 6.68387C14.0223 5.83425 13.1027 5.20021 12.0629 4.8566C11.7652 3.41976 10.9589 2.13854 9.79226 1.2485C8.62568 0.358591 7.17699 -0.0805528 5.71233 0.0121803C4.29015 0.111415 2.94669 0.702095 1.91223 1.68307C0.877669 2.66392 0.216228 3.97397 0.0413408 5.38881L0.0414093 5.38865ZM15.2069 9.73143C15.3301 10.7983 15.1005 11.876 14.5532 12.8C14.3992 13.055 14.3479 13.3589 14.4095 13.6503L14.7382 15.1192L13.0042 14.7334V14.7333C12.7629 14.6845 12.5124 14.712 12.2873 14.8118C11.0666 15.3562 9.67747 15.3825 8.4372 14.8844C7.19693 14.3865 6.21161 13.4069 5.70638 12.1695C5.7426 12.1719 5.77876 12.1746 5.81493 12.1773C5.90918 12.1845 6.00339 12.1916 6.09834 12.1916H6.09846C6.407 12.1915 6.71504 12.1686 7.02025 12.1235C8.32788 11.9259 9.53524 11.3074 10.4595 10.3616C11.3838 9.41587 11.9743 8.19447 12.1417 6.88285C12.1883 6.49295 12.198 6.09945 12.1706 5.70762C12.9896 6.04705 13.703 6.5992 14.2368 7.30694C14.7706 8.01472 15.1055 8.85232 15.2068 9.73306L15.2069 9.73143ZM5.75919 0.772235C7.41043 0.667518 9.0168 1.3351 10.1075 2.57936C11.198 3.82358 11.6495 5.50355 11.3293 7.12687C11.009 8.75019 9.95356 10.1329 8.47222 10.8698C6.99087 11.6068 5.25134 11.6145 3.7634 10.8906C3.6009 10.8106 3.42235 10.7687 3.24122 10.7679C3.14059 10.7678 3.04046 10.7814 2.94365 10.8083L1.26446 11.2761L1.62031 9.58731H1.62018C1.67758 9.3044 1.62796 9.01027 1.48077 8.76182C0.903216 7.76873 0.66371 6.61492 0.798141 5.47371C0.951581 4.23635 1.53027 3.09073 2.43524 2.23308C3.34033 1.3753 4.5153 0.858869 5.75926 0.772144L5.75919 0.772235Z" fill="black"/>
<path d="M0.0414093 5.38865C-0.111649 6.69233 0.16207 8.01041 0.82151 9.14532C0.873934 9.22988 0.892937 9.3309 0.874825 9.42873L0.519076 11.1182C0.464357 11.3786 0.549433 11.6486 0.743435 11.8306C0.937564 12.0125 1.21242 12.0801 1.46881 12.0089L3.14761 11.5429C3.2425 11.5192 3.34276 11.5311 3.42949 11.5761C3.8828 11.7951 4.36162 11.9567 4.85497 12.0572C5.17677 13.0413 5.75941 13.9197 6.54091 14.5989C7.32229 15.2781 8.27329 15.7327 9.29264 15.9143C9.61878 15.9709 9.94925 15.9996 10.2804 16C11.0769 16.0009 11.8645 15.8337 12.5919 15.5093C12.6708 15.4736 12.7585 15.4625 12.8437 15.4773L14.5722 15.8621C14.8262 15.9185 15.0915 15.8412 15.2757 15.6573C15.4598 15.4732 15.5372 15.208 15.4811 14.954L15.1543 13.4858C15.1339 13.383 15.1531 13.2762 15.2084 13.187C15.8388 12.1221 16.1038 10.8803 15.9626 9.65077C15.8378 8.56292 15.4044 7.53333 14.7134 6.68387C14.0223 5.83425 13.1027 5.20021 12.0629 4.8566C11.7652 3.41976 10.9589 2.13854 9.79226 1.2485C8.62568 0.358591 7.17699 -0.0805528 5.71233 0.0121803C4.29015 0.111415 2.94669 0.702095 1.91223 1.68307C0.877669 2.66392 0.216228 3.97397 0.0413408 5.38881L0.0414093 5.38865ZM15.2069 9.73143C15.3301 10.7983 15.1005 11.876 14.5532 12.8C14.3992 13.055 14.3479 13.3589 14.4095 13.6503L14.7382 15.1192L13.0042 14.7334V14.7333C12.7629 14.6845 12.5124 14.712 12.2873 14.8118C11.0666 15.3562 9.67747 15.3825 8.4372 14.8844C7.19693 14.3865 6.21161 13.4069 5.70638 12.1695C5.7426 12.1719 5.77876 12.1746 5.81493 12.1773C5.90918 12.1845 6.00339 12.1916 6.09834 12.1916H6.09846C6.407 12.1915 6.71504 12.1686 7.02025 12.1235C8.32788 11.9259 9.53524 11.3074 10.4595 10.3616C11.3838 9.41587 11.9743 8.19447 12.1417 6.88285C12.1883 6.49295 12.198 6.09945 12.1706 5.70762C12.9896 6.04705 13.703 6.5992 14.2368 7.30694C14.7706 8.01472 15.1055 8.85232 15.2068 9.73306L15.2069 9.73143ZM5.75919 0.772235C7.41043 0.667518 9.0168 1.3351 10.1075 2.57936C11.198 3.82358 11.6495 5.50355 11.3293 7.12687C11.009 8.75019 9.95356 10.1329 8.47222 10.8698C6.99087 11.6068 5.25134 11.6145 3.7634 10.8906C3.6009 10.8106 3.42235 10.7687 3.24122 10.7679C3.14059 10.7678 3.04046 10.7814 2.94365 10.8083L1.26446 11.2761L1.62031 9.58731H1.62018C1.67758 9.3044 1.62796 9.01027 1.48077 8.76182C0.903216 7.76873 0.66371 6.61492 0.798141 5.47371C0.951581 4.23635 1.53027 3.09073 2.43524 2.23308C3.34033 1.3753 4.5153 0.858869 5.75926 0.772144L5.75919 0.772235Z" stroke="black"/>
<path d="M6.66823 8.19056C6.66823 8.50624 6.41237 8.76198 6.09681 8.76198C5.78113 8.76198 5.52539 8.50624 5.52539 8.19056C5.52539 7.875 5.78113 7.61914 6.09681 7.61914C6.41237 7.61914 6.66823 7.875 6.66823 8.19056Z" fill="black"/>
<path d="M6.66823 8.19056C6.66823 8.50624 6.41237 8.76198 6.09681 8.76198C5.78113 8.76198 5.52539 8.50624 5.52539 8.19056C5.52539 7.875 5.78113 7.61914 6.09681 7.61914C6.41237 7.61914 6.66823 7.875 6.66823 8.19056Z" stroke="black"/>
<path d="M4.9533 4.95273C5.05432 4.95273 5.15113 4.91255 5.22268 4.84112C5.29411 4.76969 5.33416 4.67276 5.33416 4.57174C5.33403 4.34483 5.43492 4.12966 5.60967 3.98474C5.78428 3.83985 6.01439 3.78028 6.23747 3.82237C6.38824 3.85171 6.52676 3.92543 6.63531 4.03398C6.74398 4.14265 6.81758 4.28117 6.84692 4.43195C6.87957 4.60401 6.85189 4.78195 6.7686 4.93604C6.68531 5.08999 6.55164 5.21065 6.38977 5.27761C6.18697 5.36422 6.0144 5.50924 5.89423 5.69432C5.77408 5.87927 5.71171 6.09598 5.71516 6.31652V6.85744C5.71516 7.06777 5.88569 7.23843 6.09614 7.23843C6.30647 7.23843 6.477 7.06777 6.477 6.85744V6.31652C6.47126 6.17455 6.55009 6.04267 6.67776 5.98056C7.0196 5.83936 7.29829 5.57877 7.46218 5.24728C7.62595 4.91579 7.6637 4.53607 7.5683 4.17879C7.47276 3.82164 7.2507 3.51134 6.94343 3.30573C6.63616 3.10012 6.26448 3.01326 5.89789 3.06134C5.5313 3.10943 5.19472 3.28915 4.95084 3.56707C4.70684 3.84487 4.5724 4.20199 4.57227 4.57178C4.57227 4.6728 4.61244 4.76974 4.68387 4.84117C4.7553 4.91259 4.85223 4.95277 4.95325 4.95277L4.9533 4.95273Z" fill="black"/>
<path d="M4.9533 4.95273C5.05432 4.95273 5.15113 4.91255 5.22268 4.84112C5.29411 4.76969 5.33416 4.67276 5.33416 4.57174C5.33403 4.34483 5.43492 4.12966 5.60967 3.98474C5.78428 3.83985 6.01439 3.78028 6.23747 3.82237C6.38824 3.85171 6.52676 3.92543 6.63531 4.03398C6.74398 4.14265 6.81758 4.28117 6.84692 4.43195C6.87957 4.60401 6.85189 4.78195 6.7686 4.93604C6.68531 5.08999 6.55164 5.21065 6.38977 5.27761C6.18697 5.36422 6.0144 5.50924 5.89423 5.69432C5.77408 5.87927 5.71171 6.09598 5.71516 6.31652V6.85744C5.71516 7.06777 5.88569 7.23843 6.09614 7.23843C6.30647 7.23843 6.477 7.06777 6.477 6.85744V6.31652C6.47126 6.17455 6.55009 6.04267 6.67776 5.98056C7.0196 5.83936 7.29829 5.57877 7.46218 5.24728C7.62595 4.91579 7.6637 4.53607 7.5683 4.17879C7.47276 3.82164 7.2507 3.51134 6.94343 3.30573C6.63616 3.10012 6.26448 3.01326 5.89789 3.06134C5.5313 3.10943 5.19472 3.28915 4.95084 3.56707C4.70684 3.84487 4.5724 4.20199 4.57227 4.57178C4.57227 4.6728 4.61244 4.76974 4.68387 4.84117C4.7553 4.91259 4.85223 4.95277 4.95325 4.95277L4.9533 4.95273Z" stroke="black"/>
</svg>
