<svg width="45" height="32" viewBox="0 0 45 32" fill="none" xmlns="http://www.w3.org/2000/svg">
<path d="M38.1092 9.04228C36.6207 3.81814 31.8897 0 26.2824 0C22.0553 0 18.3254 2.16976 16.1079 5.48219C14.9775 4.54011 13.5356 3.97412 11.9617 3.97412C8.34444 3.97412 5.41092 6.96261 5.41092 10.6486C5.41092 11.272 5.49599 11.8734 5.65263 12.4476C2.32237 13.961 0 17.3641 0 21.3195C0 26.6837 4.26543 31.0344 9.52767 31.0344H19.0489V22.4791H13.8728L22.4996 12.135L31.124 22.4791H25.9495V31.0344H33.7775C39.9764 31.0344 45 25.912 45 19.595C45.0003 14.8401 42.1578 10.7672 38.1093 9.04188L38.1092 9.04228Z" fill="#ABABAB"/>
</svg>
