<svg width="17" height="17" viewBox="0 0 17 17" fill="none" xmlns="http://www.w3.org/2000/svg">
<path d="M2.37184 16.116C1.78031 16.116 1.22006 15.9077 0.778342 15.5457C0.336459 15.1839 0 14.6301 0 13.9831V2.13294C0 1.48588 0.336425 0.939503 0.778342 0.577608C1.22026 0.215714 1.78035 0 2.37184 0H9.487C10.0785 0 10.6388 0.215743 11.0805 0.577608C11.5224 0.939494 11.8588 1.48588 11.8588 2.13294V5.92506C11.8641 6.30067 11.5232 6.64618 11.1473 6.64618C10.7714 6.64618 10.4305 6.30066 10.4358 5.92506V2.13294C10.4358 1.97935 10.3581 1.82263 10.1764 1.67366C9.99457 1.52471 9.72147 1.42188 9.48704 1.42188H4.26918C4.03476 1.42188 3.76166 1.52471 3.5798 1.67366C3.39795 1.82261 3.32041 1.97934 3.32041 2.13294V13.9831C3.32041 14.1366 3.39811 14.3008 3.5798 14.4496C3.76165 14.5985 4.03476 14.6939 4.26918 14.6939H9.48704C9.72147 14.6939 9.99457 14.5984 10.1764 14.4496C10.3583 14.3006 10.4358 14.1366 10.4358 13.9831V10.1909C10.4305 9.81533 10.7714 9.46981 11.1473 9.46981C11.5233 9.46981 11.8642 9.81533 11.8588 10.1909V13.9831C11.8588 14.6301 11.5224 15.1839 11.0805 15.5458C10.6386 15.9077 10.0785 16.1162 9.487 16.1162H2.37184V16.116ZM2.00864 14.6273C2.01095 14.628 2.01376 14.6267 2.01608 14.6273C1.94234 14.4265 1.89754 14.2114 1.89754 13.9829V2.13277C1.89754 1.9043 1.94234 1.68805 2.01608 1.48833C1.89325 1.5328 1.77504 1.59761 1.68246 1.67349C1.50061 1.82244 1.42308 1.97917 1.42308 2.13277V13.9829C1.42308 14.1365 1.50078 14.3006 1.68246 14.4494C1.77339 14.5238 1.88829 14.5846 2.00864 14.6271L2.00864 14.6273ZM13.9121 10.6724C13.6458 10.6438 13.4037 10.4517 13.3158 10.1988C13.2278 9.94583 13.2984 9.64511 13.4897 9.45763L14.1791 8.76892H5.6182C5.24557 8.74958 4.92434 8.39315 4.94368 8.02084C4.96302 7.64854 5.31978 7.32748 5.69227 7.34682H14.1715L13.4895 6.66535C13.1992 6.40845 13.185 5.9014 13.4601 5.62847C13.7354 5.35553 14.2424 5.37355 14.4975 5.6655L16.3949 7.56156C16.6549 7.82442 16.6549 8.29856 16.3949 8.56142L14.4975 10.4575C14.3484 10.6126 14.126 10.6941 13.9119 10.6722L13.9121 10.6724Z" fill="black"/>
</svg>
